<?xml version="1.0" encoding="UTF-8" standalone="no"?>
<!DOCTYPE svg PUBLIC "-//W3C//DTD SVG 1.1//EN"
 "http://www.w3.org/Graphics/SVG/1.1/DTD/svg11.dtd">
<!-- Generated by graphviz version 2.47.0 (20210316.0004)
 -->
<!-- Title: dependencies Pages: 1 -->
<svg width="793pt" height="211pt"
 viewBox="0.00 0.00 793.00 211.00" xmlns="http://www.w3.org/2000/svg" xmlns:xlink="http://www.w3.org/1999/xlink">
<g id="graph0" class="graph" transform="scale(1 1) rotate(0) translate(4 207)">
<title>dependencies</title>
<polygon fill="white" stroke="transparent" points="-4,4 -4,-207 789,-207 789,4 -4,4"/>
<text text-anchor="start" x="371.51" y="-42.4" font-family="Times-12" font-weight="bold" font-size="14.00">Legend</text>
<polygon fill="#ffffb3" stroke="transparent" points="158.5,-10 158.5,-30 178.5,-30 178.5,-10 158.5,-10"/>
<text text-anchor="start" x="182.13" y="-15.4" font-family="Times-12" font-size="14.00"> &#160;Declarations</text>
<polygon fill="#8dd3c7" stroke="transparent" points="271.5,-10 271.5,-30 291.5,-30 291.5,-10 271.5,-10"/>
<text text-anchor="start" x="295.23" y="-15.4" font-family="Times-12" font-size="14.00"> &#160;Module</text>
<polygon fill="#80b1d3" stroke="transparent" points="357.5,-10 357.5,-30 377.5,-30 377.5,-10 357.5,-10"/>
<text text-anchor="start" x="381.28" y="-15.4" font-family="Times-12" font-size="14.00"> &#160;Bootstrap</text>
<polygon fill="#fdb462" stroke="transparent" points="454.5,-10 454.5,-30 474.5,-30 474.5,-10 454.5,-10"/>
<text text-anchor="start" x="478.17" y="-15.4" font-family="Times-12" font-size="14.00"> &#160;Providers</text>
<polygon fill="#fb8072" stroke="transparent" points="550.5,-10 550.5,-30 570.5,-30 570.5,-10 550.5,-10"/>
<text text-anchor="start" x="574.23" y="-15.4" font-family="Times-12" font-size="14.00"> &#160;Exports</text>
<g id="clust1" class="cluster">
<title>cluster_GestionUsuariosModule</title>
<polygon fill="none" stroke="black" stroke-dasharray="1,5" points="8,-70 8,-195 777,-195 777,-70 8,-70"/>
</g>
<g id="clust5" class="cluster">
<title>cluster_GestionUsuariosModule_imports</title>
<polygon fill="none" stroke="black" points="439,-78 439,-130 769,-130 769,-78 439,-78"/>
</g>
<g id="clust2" class="cluster">
<title>cluster_GestionUsuariosModule_declarations</title>
<polygon fill="none" stroke="black" points="16,-78 16,-130 431,-130 431,-78 16,-78"/>
</g>
<!-- GestionUsuariosComponent -->
<g id="node1" class="node">
<title>GestionUsuariosComponent</title>
<polygon fill="#ffffb3" stroke="black" points="423.14,-122 248.86,-122 248.86,-86 423.14,-86 423.14,-122"/>
<text text-anchor="middle" x="336" y="-99.8" font-family="Times,serif" font-size="14.00">GestionUsuariosComponent</text>
</g>
<!-- GestionUsuariosModule -->
<g id="node3" class="node">
<title>GestionUsuariosModule</title>
<polygon fill="#8dd3c7" stroke="black" points="492.36,-187 489.36,-191 468.36,-191 465.36,-187 339.64,-187 339.64,-151 492.36,-151 492.36,-187"/>
<text text-anchor="middle" x="416" y="-164.8" font-family="Times,serif" font-size="14.00">GestionUsuariosModule</text>
</g>
<!-- GestionUsuariosComponent&#45;&gt;GestionUsuariosModule -->
<g id="edge1" class="edge">
<title>GestionUsuariosComponent&#45;&gt;GestionUsuariosModule</title>
<path fill="none" stroke="black" d="M381.45,-122.11C381.45,-122.11 381.45,-140.99 381.45,-140.99"/>
<polygon fill="black" stroke="black" points="377.95,-140.99 381.45,-150.99 384.95,-140.99 377.95,-140.99"/>
</g>
<!-- GestionUsuariosTableComponent -->
<g id="node2" class="node">
<title>GestionUsuariosTableComponent</title>
<polygon fill="#ffffb3" stroke="black" points="230.01,-122 23.99,-122 23.99,-86 230.01,-86 230.01,-122"/>
<text text-anchor="middle" x="127" y="-99.8" font-family="Times,serif" font-size="14.00">GestionUsuariosTableComponent</text>
</g>
<!-- GestionUsuariosTableComponent&#45;&gt;GestionUsuariosModule -->
<g id="edge2" class="edge">
<title>GestionUsuariosTableComponent&#45;&gt;GestionUsuariosModule</title>
<path fill="none" stroke="black" d="M127,-122.11C127,-141.34 127,-169 127,-169 127,-169 329.31,-169 329.31,-169"/>
<polygon fill="black" stroke="black" points="329.31,-172.5 339.31,-169 329.31,-165.5 329.31,-172.5"/>
</g>
<!-- GestionUsuariosRoutingModule -->
<g id="node4" class="node">
<title>GestionUsuariosRoutingModule</title>
<polygon fill="#8dd3c7" stroke="black" points="760.98,-122 757.98,-126 736.98,-126 733.98,-122 563.02,-122 563.02,-86 760.98,-86 760.98,-122"/>
<text text-anchor="middle" x="662" y="-99.8" font-family="Times,serif" font-size="14.00">GestionUsuariosRoutingModule</text>
</g>
<!-- GestionUsuariosRoutingModule&#45;&gt;GestionUsuariosModule -->
<g id="edge3" class="edge">
<title>GestionUsuariosRoutingModule&#45;&gt;GestionUsuariosModule</title>
<path fill="none" stroke="black" d="M662,-122.11C662,-141.34 662,-169 662,-169 662,-169 502.49,-169 502.49,-169"/>
<polygon fill="black" stroke="black" points="502.49,-165.5 492.49,-169 502.49,-172.5 502.49,-165.5"/>
</g>
<!-- SharedModule -->
<g id="node5" class="node">
<title>SharedModule</title>
<polygon fill="#8dd3c7" stroke="black" points="545.42,-122 542.42,-126 521.42,-126 518.42,-122 446.58,-122 446.58,-86 545.42,-86 545.42,-122"/>
<text text-anchor="middle" x="496" y="-99.8" font-family="Times,serif" font-size="14.00">SharedModule</text>
</g>
<!-- SharedModule&#45;&gt;GestionUsuariosModule -->
<g id="edge4" class="edge">
<title>SharedModule&#45;&gt;GestionUsuariosModule</title>
<path fill="none" stroke="black" d="M469.61,-122.11C469.61,-122.11 469.61,-140.99 469.61,-140.99"/>
<polygon fill="black" stroke="black" points="466.11,-140.99 469.61,-150.99 473.11,-140.99 466.11,-140.99"/>
</g>
</g>
</svg>
