<?xml version="1.0" encoding="UTF-8" standalone="no"?>
<!DOCTYPE svg PUBLIC "-//W3C//DTD SVG 1.1//EN"
 "http://www.w3.org/Graphics/SVG/1.1/DTD/svg11.dtd">
<!-- Generated by graphviz version 2.47.0 (20210316.0004)
 -->
<!-- Title: dependencies Pages: 1 -->
<svg width="510pt" height="211pt"
 viewBox="0.00 0.00 510.00 211.00" xmlns="http://www.w3.org/2000/svg" xmlns:xlink="http://www.w3.org/1999/xlink">
<g id="graph0" class="graph" transform="scale(1 1) rotate(0) translate(4 207)">
<title>dependencies</title>
<polygon fill="white" stroke="transparent" points="-4,4 -4,-207 506,-207 506,4 -4,4"/>
<text text-anchor="start" x="230.01" y="-42.4" font-family="Times-12" font-weight="bold" font-size="14.00">Legend</text>
<polygon fill="#ffffb3" stroke="transparent" points="17,-10 17,-30 37,-30 37,-10 17,-10"/>
<text text-anchor="start" x="40.63" y="-15.4" font-family="Times-12" font-size="14.00"> &#160;Declarations</text>
<polygon fill="#8dd3c7" stroke="transparent" points="130,-10 130,-30 150,-30 150,-10 130,-10"/>
<text text-anchor="start" x="153.73" y="-15.4" font-family="Times-12" font-size="14.00"> &#160;Module</text>
<polygon fill="#80b1d3" stroke="transparent" points="216,-10 216,-30 236,-30 236,-10 216,-10"/>
<text text-anchor="start" x="239.78" y="-15.4" font-family="Times-12" font-size="14.00"> &#160;Bootstrap</text>
<polygon fill="#fdb462" stroke="transparent" points="313,-10 313,-30 333,-30 333,-10 313,-10"/>
<text text-anchor="start" x="336.67" y="-15.4" font-family="Times-12" font-size="14.00"> &#160;Providers</text>
<polygon fill="#fb8072" stroke="transparent" points="409,-10 409,-30 429,-30 429,-10 409,-10"/>
<text text-anchor="start" x="432.73" y="-15.4" font-family="Times-12" font-size="14.00"> &#160;Exports</text>
<g id="clust1" class="cluster">
<title>cluster_FormLoginModule</title>
<polygon fill="none" stroke="black" stroke-dasharray="1,5" points="8,-70 8,-195 494,-195 494,-70 8,-70"/>
</g>
<g id="clust2" class="cluster">
<title>cluster_FormLoginModule_declarations</title>
<polygon fill="none" stroke="black" points="324,-78 324,-130 486,-130 486,-78 324,-78"/>
</g>
<g id="clust4" class="cluster">
<title>cluster_FormLoginModule_imports</title>
<polygon fill="none" stroke="black" points="16,-78 16,-130 316,-130 316,-78 16,-78"/>
</g>
<!-- FormLoginComponent -->
<g id="node1" class="node">
<title>FormLoginComponent</title>
<polygon fill="#ffffb3" stroke="black" points="477.61,-122 332.39,-122 332.39,-86 477.61,-86 477.61,-122"/>
<text text-anchor="middle" x="405" y="-99.8" font-family="Times,serif" font-size="14.00">FormLoginComponent</text>
</g>
<!-- FormLoginModule -->
<g id="node2" class="node">
<title>FormLoginModule</title>
<polygon fill="#8dd3c7" stroke="black" points="285.83,-187 282.83,-191 261.83,-191 258.83,-187 162.17,-187 162.17,-151 285.83,-151 285.83,-187"/>
<text text-anchor="middle" x="224" y="-164.8" font-family="Times,serif" font-size="14.00">FormLoginModule</text>
</g>
<!-- FormLoginComponent&#45;&gt;FormLoginModule -->
<g id="edge1" class="edge">
<title>FormLoginComponent&#45;&gt;FormLoginModule</title>
<path fill="none" stroke="black" d="M405,-122.11C405,-141.34 405,-169 405,-169 405,-169 295.78,-169 295.78,-169"/>
<polygon fill="black" stroke="black" points="295.78,-165.5 285.78,-169 295.78,-172.5 295.78,-165.5"/>
</g>
<!-- FormLoginRoutingModule -->
<g id="node3" class="node">
<title>FormLoginRoutingModule</title>
<polygon fill="#8dd3c7" stroke="black" points="308.45,-122 305.45,-126 284.45,-126 281.45,-122 139.55,-122 139.55,-86 308.45,-86 308.45,-122"/>
<text text-anchor="middle" x="224" y="-99.8" font-family="Times,serif" font-size="14.00">FormLoginRoutingModule</text>
</g>
<!-- FormLoginRoutingModule&#45;&gt;FormLoginModule -->
<g id="edge2" class="edge">
<title>FormLoginRoutingModule&#45;&gt;FormLoginModule</title>
<path fill="none" stroke="black" d="M224,-122.11C224,-122.11 224,-140.99 224,-140.99"/>
<polygon fill="black" stroke="black" points="220.5,-140.99 224,-150.99 227.5,-140.99 220.5,-140.99"/>
</g>
<!-- SharedModule -->
<g id="node4" class="node">
<title>SharedModule</title>
<polygon fill="#8dd3c7" stroke="black" points="122.42,-122 119.42,-126 98.42,-126 95.42,-122 23.58,-122 23.58,-86 122.42,-86 122.42,-122"/>
<text text-anchor="middle" x="73" y="-99.8" font-family="Times,serif" font-size="14.00">SharedModule</text>
</g>
<!-- SharedModule&#45;&gt;FormLoginModule -->
<g id="edge3" class="edge">
<title>SharedModule&#45;&gt;FormLoginModule</title>
<path fill="none" stroke="black" d="M73,-122.11C73,-141.34 73,-169 73,-169 73,-169 152.15,-169 152.15,-169"/>
<polygon fill="black" stroke="black" points="152.15,-172.5 162.15,-169 152.15,-165.5 152.15,-172.5"/>
</g>
</g>
</svg>
