<?xml version="1.0" encoding="UTF-8" standalone="no"?>
<!DOCTYPE svg PUBLIC "-//W3C//DTD SVG 1.1//EN"
 "http://www.w3.org/Graphics/SVG/1.1/DTD/svg11.dtd">
<!-- Generated by graphviz version 2.47.0 (20210316.0004)
 -->
<!-- Title: dependencies Pages: 1 -->
<svg width="504pt" height="211pt"
 viewBox="0.00 0.00 504.00 211.00" xmlns="http://www.w3.org/2000/svg" xmlns:xlink="http://www.w3.org/1999/xlink">
<g id="graph0" class="graph" transform="scale(1 1) rotate(0) translate(4 207)">
<title>dependencies</title>
<polygon fill="white" stroke="transparent" points="-4,4 -4,-207 500,-207 500,4 -4,4"/>
<text text-anchor="start" x="227.01" y="-42.4" font-family="Times-12" font-weight="bold" font-size="14.00">Legend</text>
<polygon fill="#ffffb3" stroke="transparent" points="14,-10 14,-30 34,-30 34,-10 14,-10"/>
<text text-anchor="start" x="37.63" y="-15.4" font-family="Times-12" font-size="14.00"> &#160;Declarations</text>
<polygon fill="#8dd3c7" stroke="transparent" points="127,-10 127,-30 147,-30 147,-10 127,-10"/>
<text text-anchor="start" x="150.73" y="-15.4" font-family="Times-12" font-size="14.00"> &#160;Module</text>
<polygon fill="#80b1d3" stroke="transparent" points="213,-10 213,-30 233,-30 233,-10 213,-10"/>
<text text-anchor="start" x="236.78" y="-15.4" font-family="Times-12" font-size="14.00"> &#160;Bootstrap</text>
<polygon fill="#fdb462" stroke="transparent" points="310,-10 310,-30 330,-30 330,-10 310,-10"/>
<text text-anchor="start" x="333.67" y="-15.4" font-family="Times-12" font-size="14.00"> &#160;Providers</text>
<polygon fill="#fb8072" stroke="transparent" points="406,-10 406,-30 426,-30 426,-10 406,-10"/>
<text text-anchor="start" x="429.73" y="-15.4" font-family="Times-12" font-size="14.00"> &#160;Exports</text>
<g id="clust1" class="cluster">
<title>cluster_FormRegisterModule</title>
<polygon fill="none" stroke="black" stroke-dasharray="1,5" points="50,-70 50,-195 446,-195 446,-70 50,-70"/>
</g>
<g id="clust4" class="cluster">
<title>cluster_FormRegisterModule_imports</title>
<polygon fill="none" stroke="black" points="240,-78 240,-130 438,-130 438,-78 240,-78"/>
</g>
<g id="clust2" class="cluster">
<title>cluster_FormRegisterModule_declarations</title>
<polygon fill="none" stroke="black" points="58,-78 58,-130 232,-130 232,-78 58,-78"/>
</g>
<!-- FormRegisterComponent -->
<g id="node1" class="node">
<title>FormRegisterComponent</title>
<polygon fill="#ffffb3" stroke="black" points="224.32,-122 65.68,-122 65.68,-86 224.32,-86 224.32,-122"/>
<text text-anchor="middle" x="145" y="-99.8" font-family="Times,serif" font-size="14.00">FormRegisterComponent</text>
</g>
<!-- FormRegisterModule -->
<g id="node2" class="node">
<title>FormRegisterModule</title>
<polygon fill="#8dd3c7" stroke="black" points="310.04,-187 307.04,-191 286.04,-191 283.04,-187 173.96,-187 173.96,-151 310.04,-151 310.04,-187"/>
<text text-anchor="middle" x="242" y="-164.8" font-family="Times,serif" font-size="14.00">FormRegisterModule</text>
</g>
<!-- FormRegisterComponent&#45;&gt;FormRegisterModule -->
<g id="edge1" class="edge">
<title>FormRegisterComponent&#45;&gt;FormRegisterModule</title>
<path fill="none" stroke="black" d="M198.95,-122.11C198.95,-122.11 198.95,-140.99 198.95,-140.99"/>
<polygon fill="black" stroke="black" points="195.45,-140.99 198.95,-150.99 202.45,-140.99 195.45,-140.99"/>
</g>
<!-- FormRegisterRoutingModule -->
<g id="node3" class="node">
<title>FormRegisterRoutingModule</title>
<polygon fill="#8dd3c7" stroke="black" points="429.65,-122 426.65,-126 405.65,-126 402.65,-122 248.35,-122 248.35,-86 429.65,-86 429.65,-122"/>
<text text-anchor="middle" x="339" y="-99.8" font-family="Times,serif" font-size="14.00">FormRegisterRoutingModule</text>
</g>
<!-- FormRegisterRoutingModule&#45;&gt;FormRegisterModule -->
<g id="edge2" class="edge">
<title>FormRegisterRoutingModule&#45;&gt;FormRegisterModule</title>
<path fill="none" stroke="black" d="M279.22,-122.11C279.22,-122.11 279.22,-140.99 279.22,-140.99"/>
<polygon fill="black" stroke="black" points="275.72,-140.99 279.22,-150.99 282.72,-140.99 275.72,-140.99"/>
</g>
</g>
</svg>
