<?xml version="1.0" encoding="UTF-8" standalone="no"?>
<!DOCTYPE svg PUBLIC "-//W3C//DTD SVG 1.1//EN"
 "http://www.w3.org/Graphics/SVG/1.1/DTD/svg11.dtd">
<!-- Generated by graphviz version 2.47.0 (20210316.0004)
 -->
<!-- Title: dependencies Pages: 1 -->
<svg width="504pt" height="211pt"
 viewBox="0.00 0.00 504.00 211.00" xmlns="http://www.w3.org/2000/svg" xmlns:xlink="http://www.w3.org/1999/xlink">
<g id="graph0" class="graph" transform="scale(1 1) rotate(0) translate(4 207)">
<title>dependencies</title>
<polygon fill="white" stroke="transparent" points="-4,4 -4,-207 500,-207 500,4 -4,4"/>
<text text-anchor="start" x="227.01" y="-42.4" font-family="Times-12" font-weight="bold" font-size="14.00">Legend</text>
<polygon fill="#ffffb3" stroke="transparent" points="14,-10 14,-30 34,-30 34,-10 14,-10"/>
<text text-anchor="start" x="37.63" y="-15.4" font-family="Times-12" font-size="14.00"> &#160;Declarations</text>
<polygon fill="#8dd3c7" stroke="transparent" points="127,-10 127,-30 147,-30 147,-10 127,-10"/>
<text text-anchor="start" x="150.73" y="-15.4" font-family="Times-12" font-size="14.00"> &#160;Module</text>
<polygon fill="#80b1d3" stroke="transparent" points="213,-10 213,-30 233,-30 233,-10 213,-10"/>
<text text-anchor="start" x="236.78" y="-15.4" font-family="Times-12" font-size="14.00"> &#160;Bootstrap</text>
<polygon fill="#fdb462" stroke="transparent" points="310,-10 310,-30 330,-30 330,-10 310,-10"/>
<text text-anchor="start" x="333.67" y="-15.4" font-family="Times-12" font-size="14.00"> &#160;Providers</text>
<polygon fill="#fb8072" stroke="transparent" points="406,-10 406,-30 426,-30 426,-10 406,-10"/>
<text text-anchor="start" x="429.73" y="-15.4" font-family="Times-12" font-size="14.00"> &#160;Exports</text>
<g id="clust1" class="cluster">
<title>cluster_MyEventsModule</title>
<polygon fill="none" stroke="black" stroke-dasharray="1,5" points="12,-70 12,-195 484,-195 484,-70 12,-70"/>
</g>
<g id="clust2" class="cluster">
<title>cluster_MyEventsModule_declarations</title>
<polygon fill="none" stroke="black" points="322,-78 322,-130 476,-130 476,-78 322,-78"/>
</g>
<g id="clust4" class="cluster">
<title>cluster_MyEventsModule_imports</title>
<polygon fill="none" stroke="black" points="20,-78 20,-130 314,-130 314,-78 20,-78"/>
</g>
<!-- MyEventsComponent -->
<g id="node1" class="node">
<title>MyEventsComponent</title>
<polygon fill="#ffffb3" stroke="black" points="468.38,-122 329.62,-122 329.62,-86 468.38,-86 468.38,-122"/>
<text text-anchor="middle" x="399" y="-99.8" font-family="Times,serif" font-size="14.00">MyEventsComponent</text>
</g>
<!-- MyEventsModule -->
<g id="node2" class="node">
<title>MyEventsModule</title>
<polygon fill="#8dd3c7" stroke="black" points="283.6,-187 280.6,-191 259.6,-191 256.6,-187 166.4,-187 166.4,-151 283.6,-151 283.6,-187"/>
<text text-anchor="middle" x="225" y="-164.8" font-family="Times,serif" font-size="14.00">MyEventsModule</text>
</g>
<!-- MyEventsComponent&#45;&gt;MyEventsModule -->
<g id="edge1" class="edge">
<title>MyEventsComponent&#45;&gt;MyEventsModule</title>
<path fill="none" stroke="black" d="M399,-122.11C399,-141.34 399,-169 399,-169 399,-169 293.91,-169 293.91,-169"/>
<polygon fill="black" stroke="black" points="293.91,-165.5 283.91,-169 293.91,-172.5 293.91,-165.5"/>
</g>
<!-- MyEventsRoutingModule -->
<g id="node3" class="node">
<title>MyEventsRoutingModule</title>
<polygon fill="#8dd3c7" stroke="black" points="306.21,-122 303.21,-126 282.21,-126 279.21,-122 143.79,-122 143.79,-86 306.21,-86 306.21,-122"/>
<text text-anchor="middle" x="225" y="-99.8" font-family="Times,serif" font-size="14.00">MyEventsRoutingModule</text>
</g>
<!-- MyEventsRoutingModule&#45;&gt;MyEventsModule -->
<g id="edge2" class="edge">
<title>MyEventsRoutingModule&#45;&gt;MyEventsModule</title>
<path fill="none" stroke="black" d="M225,-122.11C225,-122.11 225,-140.99 225,-140.99"/>
<polygon fill="black" stroke="black" points="221.5,-140.99 225,-150.99 228.5,-140.99 221.5,-140.99"/>
</g>
<!-- SharedModule -->
<g id="node4" class="node">
<title>SharedModule</title>
<polygon fill="#8dd3c7" stroke="black" points="126.42,-122 123.42,-126 102.42,-126 99.42,-122 27.58,-122 27.58,-86 126.42,-86 126.42,-122"/>
<text text-anchor="middle" x="77" y="-99.8" font-family="Times,serif" font-size="14.00">SharedModule</text>
</g>
<!-- SharedModule&#45;&gt;MyEventsModule -->
<g id="edge3" class="edge">
<title>SharedModule&#45;&gt;MyEventsModule</title>
<path fill="none" stroke="black" d="M77,-122.11C77,-141.34 77,-169 77,-169 77,-169 156.08,-169 156.08,-169"/>
<polygon fill="black" stroke="black" points="156.08,-172.5 166.08,-169 156.08,-165.5 156.08,-172.5"/>
</g>
</g>
</svg>
