<?xml version="1.0" encoding="UTF-8" standalone="no"?>
<!DOCTYPE svg PUBLIC "-//W3C//DTD SVG 1.1//EN"
 "http://www.w3.org/Graphics/SVG/1.1/DTD/svg11.dtd">
<!-- Generated by graphviz version 2.47.0 (20210316.0004)
 -->
<!-- Title: dependencies Pages: 1 -->
<svg width="504pt" height="211pt"
 viewBox="0.00 0.00 504.00 211.00" xmlns="http://www.w3.org/2000/svg" xmlns:xlink="http://www.w3.org/1999/xlink">
<g id="graph0" class="graph" transform="scale(1 1) rotate(0) translate(4 207)">
<title>dependencies</title>
<polygon fill="white" stroke="transparent" points="-4,4 -4,-207 500,-207 500,4 -4,4"/>
<text text-anchor="start" x="227.01" y="-42.4" font-family="Times-12" font-weight="bold" font-size="14.00">Legend</text>
<polygon fill="#ffffb3" stroke="transparent" points="14,-10 14,-30 34,-30 34,-10 14,-10"/>
<text text-anchor="start" x="37.63" y="-15.4" font-family="Times-12" font-size="14.00"> &#160;Declarations</text>
<polygon fill="#8dd3c7" stroke="transparent" points="127,-10 127,-30 147,-30 147,-10 127,-10"/>
<text text-anchor="start" x="150.73" y="-15.4" font-family="Times-12" font-size="14.00"> &#160;Module</text>
<polygon fill="#80b1d3" stroke="transparent" points="213,-10 213,-30 233,-30 233,-10 213,-10"/>
<text text-anchor="start" x="236.78" y="-15.4" font-family="Times-12" font-size="14.00"> &#160;Bootstrap</text>
<polygon fill="#fdb462" stroke="transparent" points="310,-10 310,-30 330,-30 330,-10 310,-10"/>
<text text-anchor="start" x="333.67" y="-15.4" font-family="Times-12" font-size="14.00"> &#160;Providers</text>
<polygon fill="#fb8072" stroke="transparent" points="406,-10 406,-30 426,-30 426,-10 406,-10"/>
<text text-anchor="start" x="429.73" y="-15.4" font-family="Times-12" font-size="14.00"> &#160;Exports</text>
<g id="clust1" class="cluster">
<title>cluster_MyEventsModule</title>
<polygon fill="none" stroke="black" stroke-dasharray="1,5" points="12,-70 12,-195 484,-195 484,-70 12,-70"/>
</g>
<g id="clust4" class="cluster">
<title>cluster_MyEventsModule_imports</title>
<polygon fill="none" stroke="black" points="182,-78 182,-130 476,-130 476,-78 182,-78"/>
</g>
<g id="clust2" class="cluster">
<title>cluster_MyEventsModule_declarations</title>
<polygon fill="none" stroke="black" points="20,-78 20,-130 174,-130 174,-78 20,-78"/>
</g>
<!-- MyEventsComponent -->
<g id="node1" class="node">
<title>MyEventsComponent</title>
<polygon fill="#ffffb3" stroke="black" points="166.38,-122 27.62,-122 27.62,-86 166.38,-86 166.38,-122"/>
<text text-anchor="middle" x="97" y="-99.8" font-family="Times,serif" font-size="14.00">MyEventsComponent</text>
</g>
<!-- MyEventsModule -->
<g id="node2" class="node">
<title>MyEventsModule</title>
<polygon fill="#8dd3c7" stroke="black" points="297.6,-187 294.6,-191 273.6,-191 270.6,-187 180.4,-187 180.4,-151 297.6,-151 297.6,-187"/>
<text text-anchor="middle" x="239" y="-164.8" font-family="Times,serif" font-size="14.00">MyEventsModule</text>
</g>
<!-- MyEventsComponent&#45;&gt;MyEventsModule -->
<g id="edge1" class="edge">
<title>MyEventsComponent&#45;&gt;MyEventsModule</title>
<path fill="none" stroke="black" d="M166.43,-104C177.35,-104 185.12,-104 185.12,-104 185.12,-104 185.12,-140.89 185.12,-140.89"/>
<polygon fill="black" stroke="black" points="181.62,-140.89 185.12,-150.89 188.62,-140.89 181.62,-140.89"/>
</g>
<!-- MyEventsRoutingModule -->
<g id="node3" class="node">
<title>MyEventsRoutingModule</title>
<polygon fill="#8dd3c7" stroke="black" points="468.21,-122 465.21,-126 444.21,-126 441.21,-122 305.79,-122 305.79,-86 468.21,-86 468.21,-122"/>
<text text-anchor="middle" x="387" y="-99.8" font-family="Times,serif" font-size="14.00">MyEventsRoutingModule</text>
</g>
<!-- MyEventsRoutingModule&#45;&gt;MyEventsModule -->
<g id="edge2" class="edge">
<title>MyEventsRoutingModule&#45;&gt;MyEventsModule</title>
<path fill="none" stroke="black" d="M305.57,-104C297.88,-104 292.88,-104 292.88,-104 292.88,-104 292.88,-140.89 292.88,-140.89"/>
<polygon fill="black" stroke="black" points="289.38,-140.89 292.88,-150.89 296.38,-140.89 289.38,-140.89"/>
</g>
<!-- SharedModule -->
<g id="node4" class="node">
<title>SharedModule</title>
<polygon fill="#8dd3c7" stroke="black" points="288.42,-122 285.42,-126 264.42,-126 261.42,-122 189.58,-122 189.58,-86 288.42,-86 288.42,-122"/>
<text text-anchor="middle" x="239" y="-99.8" font-family="Times,serif" font-size="14.00">SharedModule</text>
</g>
<!-- SharedModule&#45;&gt;MyEventsModule -->
<g id="edge3" class="edge">
<title>SharedModule&#45;&gt;MyEventsModule</title>
<path fill="none" stroke="black" d="M239,-122.11C239,-122.11 239,-140.99 239,-140.99"/>
<polygon fill="black" stroke="black" points="235.5,-140.99 239,-150.99 242.5,-140.99 235.5,-140.99"/>
</g>
</g>
</svg>
