<?xml version="1.0" encoding="UTF-8" standalone="no"?>
<!DOCTYPE svg PUBLIC "-//W3C//DTD SVG 1.1//EN"
 "http://www.w3.org/Graphics/SVG/1.1/DTD/svg11.dtd">
<!-- Generated by graphviz version 2.47.0 (20210316.0004)
 -->
<!-- Title: dependencies Pages: 1 -->
<svg width="878pt" height="284pt"
 viewBox="0.00 0.00 878.00 284.00" xmlns="http://www.w3.org/2000/svg" xmlns:xlink="http://www.w3.org/1999/xlink">
<g id="graph0" class="graph" transform="scale(1 1) rotate(0) translate(4 280)">
<title>dependencies</title>
<polygon fill="white" stroke="transparent" points="-4,4 -4,-280 874,-280 874,4 -4,4"/>
<text text-anchor="start" x="414.01" y="-42.4" font-family="Times-12" font-weight="bold" font-size="14.00">Legend</text>
<polygon fill="#ffffb3" stroke="transparent" points="201,-10 201,-30 221,-30 221,-10 201,-10"/>
<text text-anchor="start" x="224.63" y="-15.4" font-family="Times-12" font-size="14.00"> &#160;Declarations</text>
<polygon fill="#8dd3c7" stroke="transparent" points="314,-10 314,-30 334,-30 334,-10 314,-10"/>
<text text-anchor="start" x="337.73" y="-15.4" font-family="Times-12" font-size="14.00"> &#160;Module</text>
<polygon fill="#80b1d3" stroke="transparent" points="400,-10 400,-30 420,-30 420,-10 400,-10"/>
<text text-anchor="start" x="423.78" y="-15.4" font-family="Times-12" font-size="14.00"> &#160;Bootstrap</text>
<polygon fill="#fdb462" stroke="transparent" points="497,-10 497,-30 517,-30 517,-10 497,-10"/>
<text text-anchor="start" x="520.67" y="-15.4" font-family="Times-12" font-size="14.00"> &#160;Providers</text>
<polygon fill="#fb8072" stroke="transparent" points="593,-10 593,-30 613,-30 613,-10 593,-10"/>
<text text-anchor="start" x="616.73" y="-15.4" font-family="Times-12" font-size="14.00"> &#160;Exports</text>
<g id="clust1" class="cluster">
<title>cluster_ModalsModule</title>
<polygon fill="none" stroke="black" stroke-dasharray="1,5" points="8,-70 8,-268 862,-268 862,-70 8,-70"/>
</g>
<g id="clust8" class="cluster">
<title>cluster_ModalsModule_exports</title>
<polygon fill="none" stroke="black" points="71,-208 71,-260 799,-260 799,-208 71,-208"/>
</g>
<g id="clust7" class="cluster">
<title>cluster_ModalsModule_imports</title>
<polygon fill="none" stroke="black" points="740,-78 740,-130 854,-130 854,-78 740,-78"/>
</g>
<g id="clust2" class="cluster">
<title>cluster_ModalsModule_declarations</title>
<polygon fill="none" stroke="black" points="16,-78 16,-130 732,-130 732,-78 16,-78"/>
</g>
<!-- CesionImagenComponent -->
<g id="node1" class="node">
<title>CesionImagenComponent</title>
<polygon fill="#ffffb3" stroke="black" points="724.2,-122 561.8,-122 561.8,-86 724.2,-86 724.2,-122"/>
<text text-anchor="middle" x="643" y="-99.8" font-family="Times,serif" font-size="14.00">CesionImagenComponent</text>
</g>
<!-- ModalsModule -->
<g id="node5" class="node">
<title>ModalsModule</title>
<polygon fill="#8dd3c7" stroke="black" points="510.55,-187 507.55,-191 486.55,-191 483.55,-187 409.45,-187 409.45,-151 510.55,-151 510.55,-187"/>
<text text-anchor="middle" x="460" y="-164.8" font-family="Times,serif" font-size="14.00">ModalsModule</text>
</g>
<!-- CesionImagenComponent&#45;&gt;ModalsModule -->
<g id="edge1" class="edge">
<title>CesionImagenComponent&#45;&gt;ModalsModule</title>
<path fill="none" stroke="black" d="M584.54,-122.03C584.54,-138.4 584.54,-160 584.54,-160 584.54,-160 520.65,-160 520.65,-160"/>
<polygon fill="black" stroke="black" points="520.65,-156.5 510.65,-160 520.65,-163.5 520.65,-156.5"/>
</g>
<!-- CrearCategoriaComponent -->
<g id="node2" class="node">
<title>CrearCategoriaComponent</title>
<polygon fill="#ffffb3" stroke="black" points="543.34,-122 376.66,-122 376.66,-86 543.34,-86 543.34,-122"/>
<text text-anchor="middle" x="460" y="-99.8" font-family="Times,serif" font-size="14.00">CrearCategoriaComponent</text>
</g>
<!-- CrearCategoriaComponent&#45;&gt;ModalsModule -->
<g id="edge2" class="edge">
<title>CrearCategoriaComponent&#45;&gt;ModalsModule</title>
<path fill="none" stroke="black" d="M460,-122.11C460,-122.11 460,-140.99 460,-140.99"/>
<polygon fill="black" stroke="black" points="456.5,-140.99 460,-150.99 463.5,-140.99 456.5,-140.99"/>
</g>
<!-- CrearInteresComponent -->
<g id="node3" class="node">
<title>CrearInteresComponent</title>
<polygon fill="#ffffb3" stroke="black" points="358.01,-122 207.99,-122 207.99,-86 358.01,-86 358.01,-122"/>
<text text-anchor="middle" x="283" y="-99.8" font-family="Times,serif" font-size="14.00">CrearInteresComponent</text>
</g>
<!-- CrearInteresComponent&#45;&gt;ModalsModule -->
<g id="edge3" class="edge">
<title>CrearInteresComponent&#45;&gt;ModalsModule</title>
<path fill="none" stroke="black" d="M311.62,-122.03C311.62,-138.4 311.62,-160 311.62,-160 311.62,-160 399.35,-160 399.35,-160"/>
<polygon fill="black" stroke="black" points="399.35,-163.5 409.35,-160 399.35,-156.5 399.35,-163.5"/>
</g>
<!-- EditarInteresesComponent -->
<g id="node4" class="node">
<title>EditarInteresesComponent</title>
<polygon fill="#ffffb3" stroke="black" points="189.79,-122 24.21,-122 24.21,-86 189.79,-86 189.79,-122"/>
<text text-anchor="middle" x="107" y="-99.8" font-family="Times,serif" font-size="14.00">EditarInteresesComponent</text>
</g>
<!-- EditarInteresesComponent&#45;&gt;ModalsModule -->
<g id="edge4" class="edge">
<title>EditarInteresesComponent&#45;&gt;ModalsModule</title>
<path fill="none" stroke="black" d="M134.12,-122.11C134.12,-141.34 134.12,-169 134.12,-169 134.12,-169 399.44,-169 399.44,-169"/>
<polygon fill="black" stroke="black" points="399.44,-172.5 409.44,-169 399.44,-165.5 399.44,-172.5"/>
</g>
<!-- CesionImagenComponent  -->
<g id="node7" class="node">
<title>CesionImagenComponent </title>
<polygon fill="#fb8072" stroke="black" points="790.7,-252 625.3,-252 625.3,-216 790.7,-216 790.7,-252"/>
<text text-anchor="middle" x="708" y="-229.8" font-family="Times,serif" font-size="14.00">CesionImagenComponent </text>
</g>
<!-- ModalsModule&#45;&gt;CesionImagenComponent  -->
<g id="edge6" class="edge">
<title>ModalsModule&#45;&gt;CesionImagenComponent </title>
<path fill="none" stroke="black" stroke-dasharray="5,2" d="M510.59,-178C574.04,-178 674.62,-178 674.62,-178 674.62,-178 674.62,-205.97 674.62,-205.97"/>
<polygon fill="black" stroke="black" points="671.13,-205.97 674.62,-215.97 678.13,-205.97 671.13,-205.97"/>
</g>
<!-- CrearCategoriaComponent  -->
<g id="node8" class="node">
<title>CrearCategoriaComponent </title>
<polygon fill="#fb8072" stroke="black" points="607.34,-252 436.66,-252 436.66,-216 607.34,-216 607.34,-252"/>
<text text-anchor="middle" x="522" y="-229.8" font-family="Times,serif" font-size="14.00">CrearCategoriaComponent </text>
</g>
<!-- ModalsModule&#45;&gt;CrearCategoriaComponent  -->
<g id="edge7" class="edge">
<title>ModalsModule&#45;&gt;CrearCategoriaComponent </title>
<path fill="none" stroke="black" stroke-dasharray="5,2" d="M473.8,-187.11C473.8,-187.11 473.8,-205.99 473.8,-205.99"/>
<polygon fill="black" stroke="black" points="470.3,-205.99 473.8,-215.99 477.3,-205.99 470.3,-205.99"/>
</g>
<!-- CrearInteresComponent  -->
<g id="node9" class="node">
<title>CrearInteresComponent </title>
<polygon fill="#fb8072" stroke="black" points="419.01,-252 264.99,-252 264.99,-216 419.01,-216 419.01,-252"/>
<text text-anchor="middle" x="342" y="-229.8" font-family="Times,serif" font-size="14.00">CrearInteresComponent </text>
</g>
<!-- ModalsModule&#45;&gt;CrearInteresComponent  -->
<g id="edge8" class="edge">
<title>ModalsModule&#45;&gt;CrearInteresComponent </title>
<path fill="none" stroke="black" stroke-dasharray="5,2" d="M414.12,-187.11C414.12,-187.11 414.12,-205.99 414.12,-205.99"/>
<polygon fill="black" stroke="black" points="410.62,-205.99 414.12,-215.99 417.62,-205.99 410.62,-205.99"/>
</g>
<!-- EditarInteresesComponent  -->
<g id="node10" class="node">
<title>EditarInteresesComponent </title>
<polygon fill="#fb8072" stroke="black" points="247.29,-252 78.71,-252 78.71,-216 247.29,-216 247.29,-252"/>
<text text-anchor="middle" x="163" y="-229.8" font-family="Times,serif" font-size="14.00">EditarInteresesComponent </text>
</g>
<!-- ModalsModule&#45;&gt;EditarInteresesComponent  -->
<g id="edge9" class="edge">
<title>ModalsModule&#45;&gt;EditarInteresesComponent </title>
<path fill="none" stroke="black" stroke-dasharray="5,2" d="M409.28,-178C340.89,-178 227.57,-178 227.57,-178 227.57,-178 227.57,-205.97 227.57,-205.97"/>
<polygon fill="black" stroke="black" points="224.07,-205.97 227.57,-215.97 231.07,-205.97 224.07,-205.97"/>
</g>
<!-- SharedModule -->
<g id="node6" class="node">
<title>SharedModule</title>
<polygon fill="#8dd3c7" stroke="black" points="846.42,-122 843.42,-126 822.42,-126 819.42,-122 747.58,-122 747.58,-86 846.42,-86 846.42,-122"/>
<text text-anchor="middle" x="797" y="-99.8" font-family="Times,serif" font-size="14.00">SharedModule</text>
</g>
<!-- SharedModule&#45;&gt;ModalsModule -->
<g id="edge5" class="edge">
<title>SharedModule&#45;&gt;ModalsModule</title>
<path fill="none" stroke="black" d="M769.32,-122.11C769.32,-141.34 769.32,-169 769.32,-169 769.32,-169 520.73,-169 520.73,-169"/>
<polygon fill="black" stroke="black" points="520.73,-165.5 510.73,-169 520.73,-172.5 520.73,-165.5"/>
</g>
</g>
</svg>
