<?xml version="1.0" encoding="UTF-8" standalone="no"?>
<!DOCTYPE svg PUBLIC "-//W3C//DTD SVG 1.1//EN"
 "http://www.w3.org/Graphics/SVG/1.1/DTD/svg11.dtd">
<!-- Generated by graphviz version 2.47.0 (20210316.0004)
 -->
<!-- Title: dependencies Pages: 1 -->
<svg width="826pt" height="211pt"
 viewBox="0.00 0.00 826.00 211.00" xmlns="http://www.w3.org/2000/svg" xmlns:xlink="http://www.w3.org/1999/xlink">
<g id="graph0" class="graph" transform="scale(1 1) rotate(0) translate(4 207)">
<title>dependencies</title>
<polygon fill="white" stroke="transparent" points="-4,4 -4,-207 822,-207 822,4 -4,4"/>
<text text-anchor="start" x="388.01" y="-42.4" font-family="Times-12" font-weight="bold" font-size="14.00">Legend</text>
<polygon fill="#ffffb3" stroke="transparent" points="175,-10 175,-30 195,-30 195,-10 175,-10"/>
<text text-anchor="start" x="198.63" y="-15.4" font-family="Times-12" font-size="14.00"> &#160;Declarations</text>
<polygon fill="#8dd3c7" stroke="transparent" points="288,-10 288,-30 308,-30 308,-10 288,-10"/>
<text text-anchor="start" x="311.73" y="-15.4" font-family="Times-12" font-size="14.00"> &#160;Module</text>
<polygon fill="#80b1d3" stroke="transparent" points="374,-10 374,-30 394,-30 394,-10 374,-10"/>
<text text-anchor="start" x="397.78" y="-15.4" font-family="Times-12" font-size="14.00"> &#160;Bootstrap</text>
<polygon fill="#fdb462" stroke="transparent" points="471,-10 471,-30 491,-30 491,-10 471,-10"/>
<text text-anchor="start" x="494.67" y="-15.4" font-family="Times-12" font-size="14.00"> &#160;Providers</text>
<polygon fill="#fb8072" stroke="transparent" points="567,-10 567,-30 587,-30 587,-10 567,-10"/>
<text text-anchor="start" x="590.73" y="-15.4" font-family="Times-12" font-size="14.00"> &#160;Exports</text>
<g id="clust1" class="cluster">
<title>cluster_GestionEventosModule</title>
<polygon fill="none" stroke="black" stroke-dasharray="1,5" points="8,-70 8,-195 810,-195 810,-70 8,-70"/>
</g>
<g id="clust6" class="cluster">
<title>cluster_GestionEventosModule_imports</title>
<polygon fill="none" stroke="black" points="592,-78 592,-130 802,-130 802,-78 592,-78"/>
</g>
<g id="clust2" class="cluster">
<title>cluster_GestionEventosModule_declarations</title>
<polygon fill="none" stroke="black" points="16,-78 16,-130 584,-130 584,-78 16,-78"/>
</g>
<!-- CrearEventoModalComponent -->
<g id="node1" class="node">
<title>CrearEventoModalComponent</title>
<polygon fill="#ffffb3" stroke="black" points="576.13,-122 387.87,-122 387.87,-86 576.13,-86 576.13,-122"/>
<text text-anchor="middle" x="482" y="-99.8" font-family="Times,serif" font-size="14.00">CrearEventoModalComponent</text>
</g>
<!-- GestionEventosModule -->
<g id="node4" class="node">
<title>GestionEventosModule</title>
<polygon fill="#8dd3c7" stroke="black" points="460.2,-187 457.2,-191 436.2,-191 433.2,-187 311.8,-187 311.8,-151 460.2,-151 460.2,-187"/>
<text text-anchor="middle" x="386" y="-164.8" font-family="Times,serif" font-size="14.00">GestionEventosModule</text>
</g>
<!-- CrearEventoModalComponent&#45;&gt;GestionEventosModule -->
<g id="edge1" class="edge">
<title>CrearEventoModalComponent&#45;&gt;GestionEventosModule</title>
<path fill="none" stroke="black" d="M423.89,-122.11C423.89,-122.11 423.89,-140.99 423.89,-140.99"/>
<polygon fill="black" stroke="black" points="420.39,-140.99 423.89,-150.99 427.39,-140.99 420.39,-140.99"/>
</g>
<!-- EventosTableComponent -->
<g id="node2" class="node">
<title>EventosTableComponent</title>
<polygon fill="#ffffb3" stroke="black" points="370.31,-122 211.69,-122 211.69,-86 370.31,-86 370.31,-122"/>
<text text-anchor="middle" x="291" y="-99.8" font-family="Times,serif" font-size="14.00">EventosTableComponent</text>
</g>
<!-- EventosTableComponent&#45;&gt;GestionEventosModule -->
<g id="edge2" class="edge">
<title>EventosTableComponent&#45;&gt;GestionEventosModule</title>
<path fill="none" stroke="black" d="M341.03,-122.11C341.03,-122.11 341.03,-140.99 341.03,-140.99"/>
<polygon fill="black" stroke="black" points="337.53,-140.99 341.03,-150.99 344.53,-140.99 337.53,-140.99"/>
</g>
<!-- GestionEventosComponent -->
<g id="node3" class="node">
<title>GestionEventosComponent</title>
<polygon fill="#ffffb3" stroke="black" points="193.98,-122 24.02,-122 24.02,-86 193.98,-86 193.98,-122"/>
<text text-anchor="middle" x="109" y="-99.8" font-family="Times,serif" font-size="14.00">GestionEventosComponent</text>
</g>
<!-- GestionEventosComponent&#45;&gt;GestionEventosModule -->
<g id="edge3" class="edge">
<title>GestionEventosComponent&#45;&gt;GestionEventosModule</title>
<path fill="none" stroke="black" d="M109,-122.11C109,-141.34 109,-169 109,-169 109,-169 301.77,-169 301.77,-169"/>
<polygon fill="black" stroke="black" points="301.77,-172.5 311.77,-169 301.77,-165.5 301.77,-172.5"/>
</g>
<!-- GestionEventosRoutingModule -->
<g id="node5" class="node">
<title>GestionEventosRoutingModule</title>
<polygon fill="#8dd3c7" stroke="black" points="793.82,-122 790.82,-126 769.82,-126 766.82,-122 600.18,-122 600.18,-86 793.82,-86 793.82,-122"/>
<text text-anchor="middle" x="697" y="-99.8" font-family="Times,serif" font-size="14.00">GestionEventosRoutingModule</text>
</g>
<!-- GestionEventosRoutingModule&#45;&gt;GestionEventosModule -->
<g id="edge4" class="edge">
<title>GestionEventosRoutingModule&#45;&gt;GestionEventosModule</title>
<path fill="none" stroke="black" d="M697,-122.11C697,-141.34 697,-169 697,-169 697,-169 470.49,-169 470.49,-169"/>
<polygon fill="black" stroke="black" points="470.49,-165.5 460.49,-169 470.49,-172.5 470.49,-165.5"/>
</g>
</g>
</svg>
