<?xml version="1.0" encoding="UTF-8" standalone="no"?>
<!DOCTYPE svg PUBLIC "-//W3C//DTD SVG 1.1//EN"
 "http://www.w3.org/Graphics/SVG/1.1/DTD/svg11.dtd">
<!-- Generated by graphviz version 2.47.0 (20210316.0004)
 -->
<!-- Title: dependencies Pages: 1 -->
<svg width="942pt" height="284pt"
 viewBox="0.00 0.00 942.00 284.00" xmlns="http://www.w3.org/2000/svg" xmlns:xlink="http://www.w3.org/1999/xlink">
<g id="graph0" class="graph" transform="scale(1 1) rotate(0) translate(4 280)">
<title>dependencies</title>
<polygon fill="white" stroke="transparent" points="-4,4 -4,-280 938,-280 938,4 -4,4"/>
<text text-anchor="start" x="446.01" y="-42.4" font-family="Times-12" font-weight="bold" font-size="14.00">Legend</text>
<polygon fill="#ffffb3" stroke="transparent" points="233,-10 233,-30 253,-30 253,-10 233,-10"/>
<text text-anchor="start" x="256.63" y="-15.4" font-family="Times-12" font-size="14.00"> &#160;Declarations</text>
<polygon fill="#8dd3c7" stroke="transparent" points="346,-10 346,-30 366,-30 366,-10 346,-10"/>
<text text-anchor="start" x="369.73" y="-15.4" font-family="Times-12" font-size="14.00"> &#160;Module</text>
<polygon fill="#80b1d3" stroke="transparent" points="432,-10 432,-30 452,-30 452,-10 432,-10"/>
<text text-anchor="start" x="455.78" y="-15.4" font-family="Times-12" font-size="14.00"> &#160;Bootstrap</text>
<polygon fill="#fdb462" stroke="transparent" points="529,-10 529,-30 549,-30 549,-10 529,-10"/>
<text text-anchor="start" x="552.67" y="-15.4" font-family="Times-12" font-size="14.00"> &#160;Providers</text>
<polygon fill="#fb8072" stroke="transparent" points="625,-10 625,-30 645,-30 645,-10 625,-10"/>
<text text-anchor="start" x="648.73" y="-15.4" font-family="Times-12" font-size="14.00"> &#160;Exports</text>
<g id="clust1" class="cluster">
<title>cluster_GestionEventosModule</title>
<polygon fill="none" stroke="black" stroke-dasharray="1,5" points="8,-70 8,-268 926,-268 926,-70 8,-70"/>
</g>
<g id="clust6" class="cluster">
<title>cluster_GestionEventosModule_imports</title>
<polygon fill="none" stroke="black" points="592,-78 592,-130 918,-130 918,-78 592,-78"/>
</g>
<g id="clust7" class="cluster">
<title>cluster_GestionEventosModule_exports</title>
<polygon fill="none" stroke="black" points="393,-208 393,-260 571,-260 571,-208 393,-208"/>
</g>
<g id="clust2" class="cluster">
<title>cluster_GestionEventosModule_declarations</title>
<polygon fill="none" stroke="black" points="16,-78 16,-130 584,-130 584,-78 16,-78"/>
</g>
<!-- CrearEventoModalComponent -->
<g id="node1" class="node">
<title>CrearEventoModalComponent</title>
<polygon fill="#ffffb3" stroke="black" points="576.13,-122 387.87,-122 387.87,-86 576.13,-86 576.13,-122"/>
<text text-anchor="middle" x="482" y="-99.8" font-family="Times,serif" font-size="14.00">CrearEventoModalComponent</text>
</g>
<!-- GestionEventosModule -->
<g id="node4" class="node">
<title>GestionEventosModule</title>
<polygon fill="#8dd3c7" stroke="black" points="556.2,-187 553.2,-191 532.2,-191 529.2,-187 407.8,-187 407.8,-151 556.2,-151 556.2,-187"/>
<text text-anchor="middle" x="482" y="-164.8" font-family="Times,serif" font-size="14.00">GestionEventosModule</text>
</g>
<!-- CrearEventoModalComponent&#45;&gt;GestionEventosModule -->
<g id="edge1" class="edge">
<title>CrearEventoModalComponent&#45;&gt;GestionEventosModule</title>
<path fill="none" stroke="black" d="M482,-122.11C482,-122.11 482,-140.99 482,-140.99"/>
<polygon fill="black" stroke="black" points="478.5,-140.99 482,-150.99 485.5,-140.99 478.5,-140.99"/>
</g>
<!-- EventosTableComponent -->
<g id="node2" class="node">
<title>EventosTableComponent</title>
<polygon fill="#ffffb3" stroke="black" points="370.31,-122 211.69,-122 211.69,-86 370.31,-86 370.31,-122"/>
<text text-anchor="middle" x="291" y="-99.8" font-family="Times,serif" font-size="14.00">EventosTableComponent</text>
</g>
<!-- EventosTableComponent&#45;&gt;GestionEventosModule -->
<g id="edge2" class="edge">
<title>EventosTableComponent&#45;&gt;GestionEventosModule</title>
<path fill="none" stroke="black" d="M291,-122.02C291,-139.37 291,-163 291,-163 291,-163 397.88,-163 397.88,-163"/>
<polygon fill="black" stroke="black" points="397.88,-166.5 407.88,-163 397.88,-159.5 397.88,-166.5"/>
</g>
<!-- GestionEventosComponent -->
<g id="node3" class="node">
<title>GestionEventosComponent</title>
<polygon fill="#ffffb3" stroke="black" points="193.98,-122 24.02,-122 24.02,-86 193.98,-86 193.98,-122"/>
<text text-anchor="middle" x="109" y="-99.8" font-family="Times,serif" font-size="14.00">GestionEventosComponent</text>
</g>
<!-- GestionEventosComponent&#45;&gt;GestionEventosModule -->
<g id="edge3" class="edge">
<title>GestionEventosComponent&#45;&gt;GestionEventosModule</title>
<path fill="none" stroke="black" d="M109,-122.28C109,-143.32 109,-175 109,-175 109,-175 397.86,-175 397.86,-175"/>
<polygon fill="black" stroke="black" points="397.86,-178.5 407.86,-175 397.86,-171.5 397.86,-178.5"/>
</g>
<!-- EventosTableComponent  -->
<g id="node7" class="node">
<title>EventosTableComponent </title>
<polygon fill="#fb8072" stroke="black" points="562.81,-252 401.19,-252 401.19,-216 562.81,-216 562.81,-252"/>
<text text-anchor="middle" x="482" y="-229.8" font-family="Times,serif" font-size="14.00">EventosTableComponent </text>
</g>
<!-- GestionEventosModule&#45;&gt;EventosTableComponent  -->
<g id="edge6" class="edge">
<title>GestionEventosModule&#45;&gt;EventosTableComponent </title>
<path fill="none" stroke="black" stroke-dasharray="5,2" d="M482,-187.11C482,-187.11 482,-205.99 482,-205.99"/>
<polygon fill="black" stroke="black" points="478.5,-205.99 482,-215.99 485.5,-205.99 478.5,-205.99"/>
</g>
<!-- GestionEventosRoutingModule -->
<g id="node5" class="node">
<title>GestionEventosRoutingModule</title>
<polygon fill="#8dd3c7" stroke="black" points="909.82,-122 906.82,-126 885.82,-126 882.82,-122 716.18,-122 716.18,-86 909.82,-86 909.82,-122"/>
<text text-anchor="middle" x="813" y="-99.8" font-family="Times,serif" font-size="14.00">GestionEventosRoutingModule</text>
</g>
<!-- GestionEventosRoutingModule&#45;&gt;GestionEventosModule -->
<g id="edge4" class="edge">
<title>GestionEventosRoutingModule&#45;&gt;GestionEventosModule</title>
<path fill="none" stroke="black" d="M813,-122.28C813,-143.32 813,-175 813,-175 813,-175 566.28,-175 566.28,-175"/>
<polygon fill="black" stroke="black" points="566.28,-171.5 556.28,-175 566.28,-178.5 566.28,-171.5"/>
</g>
<!-- SharedModule -->
<g id="node6" class="node">
<title>SharedModule</title>
<polygon fill="#8dd3c7" stroke="black" points="698.42,-122 695.42,-126 674.42,-126 671.42,-122 599.58,-122 599.58,-86 698.42,-86 698.42,-122"/>
<text text-anchor="middle" x="649" y="-99.8" font-family="Times,serif" font-size="14.00">SharedModule</text>
</g>
<!-- SharedModule&#45;&gt;GestionEventosModule -->
<g id="edge5" class="edge">
<title>SharedModule&#45;&gt;GestionEventosModule</title>
<path fill="none" stroke="black" d="M649,-122.02C649,-139.37 649,-163 649,-163 649,-163 566.22,-163 566.22,-163"/>
<polygon fill="black" stroke="black" points="566.22,-159.5 556.22,-163 566.22,-166.5 566.22,-159.5"/>
</g>
</g>
</svg>
