<?xml version="1.0" encoding="UTF-8" standalone="no"?>
<!DOCTYPE svg PUBLIC "-//W3C//DTD SVG 1.1//EN"
 "http://www.w3.org/Graphics/SVG/1.1/DTD/svg11.dtd">
<!-- Generated by graphviz version 2.47.0 (20210316.0004)
 -->
<!-- Title: dependencies Pages: 1 -->
<svg width="1152pt" height="284pt"
 viewBox="0.00 0.00 1152.00 284.00" xmlns="http://www.w3.org/2000/svg" xmlns:xlink="http://www.w3.org/1999/xlink">
<g id="graph0" class="graph" transform="scale(1 1) rotate(0) translate(4 280)">
<title>dependencies</title>
<polygon fill="white" stroke="transparent" points="-4,4 -4,-280 1148,-280 1148,4 -4,4"/>
<text text-anchor="start" x="551.01" y="-42.4" font-family="Times-12" font-weight="bold" font-size="14.00">Legend</text>
<polygon fill="#ffffb3" stroke="transparent" points="338,-10 338,-30 358,-30 358,-10 338,-10"/>
<text text-anchor="start" x="361.63" y="-15.4" font-family="Times-12" font-size="14.00"> &#160;Declarations</text>
<polygon fill="#8dd3c7" stroke="transparent" points="451,-10 451,-30 471,-30 471,-10 451,-10"/>
<text text-anchor="start" x="474.73" y="-15.4" font-family="Times-12" font-size="14.00"> &#160;Module</text>
<polygon fill="#80b1d3" stroke="transparent" points="537,-10 537,-30 557,-30 557,-10 537,-10"/>
<text text-anchor="start" x="560.78" y="-15.4" font-family="Times-12" font-size="14.00"> &#160;Bootstrap</text>
<polygon fill="#fdb462" stroke="transparent" points="634,-10 634,-30 654,-30 654,-10 634,-10"/>
<text text-anchor="start" x="657.67" y="-15.4" font-family="Times-12" font-size="14.00"> &#160;Providers</text>
<polygon fill="#fb8072" stroke="transparent" points="730,-10 730,-30 750,-30 750,-10 730,-10"/>
<text text-anchor="start" x="753.73" y="-15.4" font-family="Times-12" font-size="14.00"> &#160;Exports</text>
<g id="clust1" class="cluster">
<title>cluster_GestionEventosModule</title>
<polygon fill="none" stroke="black" stroke-dasharray="1,5" points="8,-70 8,-268 1136,-268 1136,-70 8,-70"/>
</g>
<g id="clust8" class="cluster">
<title>cluster_GestionEventosModule_exports</title>
<polygon fill="none" stroke="black" points="499,-208 499,-260 677,-260 677,-208 499,-208"/>
</g>
<g id="clust7" class="cluster">
<title>cluster_GestionEventosModule_imports</title>
<polygon fill="none" stroke="black" points="802,-78 802,-130 1128,-130 1128,-78 802,-78"/>
</g>
<g id="clust2" class="cluster">
<title>cluster_GestionEventosModule_declarations</title>
<polygon fill="none" stroke="black" points="16,-78 16,-130 794,-130 794,-78 16,-78"/>
</g>
<!-- CrearEventoModalComponent -->
<g id="node1" class="node">
<title>CrearEventoModalComponent</title>
<polygon fill="#ffffb3" stroke="black" points="786.13,-122 597.87,-122 597.87,-86 786.13,-86 786.13,-122"/>
<text text-anchor="middle" x="692" y="-99.8" font-family="Times,serif" font-size="14.00">CrearEventoModalComponent</text>
</g>
<!-- GestionEventosModule -->
<g id="node5" class="node">
<title>GestionEventosModule</title>
<polygon fill="#8dd3c7" stroke="black" points="662.2,-187 659.2,-191 638.2,-191 635.2,-187 513.8,-187 513.8,-151 662.2,-151 662.2,-187"/>
<text text-anchor="middle" x="588" y="-164.8" font-family="Times,serif" font-size="14.00">GestionEventosModule</text>
</g>
<!-- CrearEventoModalComponent&#45;&gt;GestionEventosModule -->
<g id="edge1" class="edge">
<title>CrearEventoModalComponent&#45;&gt;GestionEventosModule</title>
<path fill="none" stroke="black" d="M629.89,-122.11C629.89,-122.11 629.89,-140.99 629.89,-140.99"/>
<polygon fill="black" stroke="black" points="626.39,-140.99 629.89,-150.99 633.39,-140.99 626.39,-140.99"/>
</g>
<!-- EditarEventoModalComponent -->
<g id="node2" class="node">
<title>EditarEventoModalComponent</title>
<polygon fill="#ffffb3" stroke="black" points="579.75,-122 388.25,-122 388.25,-86 579.75,-86 579.75,-122"/>
<text text-anchor="middle" x="484" y="-99.8" font-family="Times,serif" font-size="14.00">EditarEventoModalComponent</text>
</g>
<!-- EditarEventoModalComponent&#45;&gt;GestionEventosModule -->
<g id="edge2" class="edge">
<title>EditarEventoModalComponent&#45;&gt;GestionEventosModule</title>
<path fill="none" stroke="black" d="M546.89,-122.11C546.89,-122.11 546.89,-140.99 546.89,-140.99"/>
<polygon fill="black" stroke="black" points="543.39,-140.99 546.89,-150.99 550.39,-140.99 543.39,-140.99"/>
</g>
<!-- EventosTableComponent -->
<g id="node3" class="node">
<title>EventosTableComponent</title>
<polygon fill="#ffffb3" stroke="black" points="370.31,-122 211.69,-122 211.69,-86 370.31,-86 370.31,-122"/>
<text text-anchor="middle" x="291" y="-99.8" font-family="Times,serif" font-size="14.00">EventosTableComponent</text>
</g>
<!-- EventosTableComponent&#45;&gt;GestionEventosModule -->
<g id="edge3" class="edge">
<title>EventosTableComponent&#45;&gt;GestionEventosModule</title>
<path fill="none" stroke="black" d="M291,-122.02C291,-139.37 291,-163 291,-163 291,-163 503.82,-163 503.82,-163"/>
<polygon fill="black" stroke="black" points="503.82,-166.5 513.82,-163 503.82,-159.5 503.82,-166.5"/>
</g>
<!-- GestionEventosComponent -->
<g id="node4" class="node">
<title>GestionEventosComponent</title>
<polygon fill="#ffffb3" stroke="black" points="193.98,-122 24.02,-122 24.02,-86 193.98,-86 193.98,-122"/>
<text text-anchor="middle" x="109" y="-99.8" font-family="Times,serif" font-size="14.00">GestionEventosComponent</text>
</g>
<!-- GestionEventosComponent&#45;&gt;GestionEventosModule -->
<g id="edge4" class="edge">
<title>GestionEventosComponent&#45;&gt;GestionEventosModule</title>
<path fill="none" stroke="black" d="M109,-122.28C109,-143.32 109,-175 109,-175 109,-175 503.68,-175 503.68,-175"/>
<polygon fill="black" stroke="black" points="503.68,-178.5 513.68,-175 503.68,-171.5 503.68,-178.5"/>
</g>
<!-- EventosTableComponent  -->
<g id="node8" class="node">
<title>EventosTableComponent </title>
<polygon fill="#fb8072" stroke="black" points="668.81,-252 507.19,-252 507.19,-216 668.81,-216 668.81,-252"/>
<text text-anchor="middle" x="588" y="-229.8" font-family="Times,serif" font-size="14.00">EventosTableComponent </text>
</g>
<!-- GestionEventosModule&#45;&gt;EventosTableComponent  -->
<g id="edge7" class="edge">
<title>GestionEventosModule&#45;&gt;EventosTableComponent </title>
<path fill="none" stroke="black" stroke-dasharray="5,2" d="M588,-187.11C588,-187.11 588,-205.99 588,-205.99"/>
<polygon fill="black" stroke="black" points="584.5,-205.99 588,-215.99 591.5,-205.99 584.5,-205.99"/>
</g>
<!-- GestionEventosRoutingModule -->
<g id="node6" class="node">
<title>GestionEventosRoutingModule</title>
<polygon fill="#8dd3c7" stroke="black" points="1119.82,-122 1116.82,-126 1095.82,-126 1092.82,-122 926.18,-122 926.18,-86 1119.82,-86 1119.82,-122"/>
<text text-anchor="middle" x="1023" y="-99.8" font-family="Times,serif" font-size="14.00">GestionEventosRoutingModule</text>
</g>
<!-- GestionEventosRoutingModule&#45;&gt;GestionEventosModule -->
<g id="edge5" class="edge">
<title>GestionEventosRoutingModule&#45;&gt;GestionEventosModule</title>
<path fill="none" stroke="black" d="M1023,-122.28C1023,-143.32 1023,-175 1023,-175 1023,-175 672.28,-175 672.28,-175"/>
<polygon fill="black" stroke="black" points="672.28,-171.5 662.28,-175 672.28,-178.5 672.28,-171.5"/>
</g>
<!-- SharedModule -->
<g id="node7" class="node">
<title>SharedModule</title>
<polygon fill="#8dd3c7" stroke="black" points="908.42,-122 905.42,-126 884.42,-126 881.42,-122 809.58,-122 809.58,-86 908.42,-86 908.42,-122"/>
<text text-anchor="middle" x="859" y="-99.8" font-family="Times,serif" font-size="14.00">SharedModule</text>
</g>
<!-- SharedModule&#45;&gt;GestionEventosModule -->
<g id="edge6" class="edge">
<title>SharedModule&#45;&gt;GestionEventosModule</title>
<path fill="none" stroke="black" d="M859,-122.02C859,-139.37 859,-163 859,-163 859,-163 672.41,-163 672.41,-163"/>
<polygon fill="black" stroke="black" points="672.41,-159.5 662.41,-163 672.41,-166.5 672.41,-159.5"/>
</g>
</g>
</svg>
