<?xml version="1.0" encoding="UTF-8" standalone="no"?>
<!DOCTYPE svg PUBLIC "-//W3C//DTD SVG 1.1//EN"
 "http://www.w3.org/Graphics/SVG/1.1/DTD/svg11.dtd">
<!-- Generated by graphviz version 2.47.0 (20210316.0004)
 -->
<!-- Title: dependencies Pages: 1 -->
<svg width="504pt" height="284pt"
 viewBox="0.00 0.00 504.00 284.00" xmlns="http://www.w3.org/2000/svg" xmlns:xlink="http://www.w3.org/1999/xlink">
<g id="graph0" class="graph" transform="scale(1 1) rotate(0) translate(4 280)">
<title>dependencies</title>
<polygon fill="white" stroke="transparent" points="-4,4 -4,-280 500,-280 500,4 -4,4"/>
<text text-anchor="start" x="227.01" y="-42.4" font-family="Times-12" font-weight="bold" font-size="14.00">Legend</text>
<polygon fill="#ffffb3" stroke="transparent" points="14,-10 14,-30 34,-30 34,-10 14,-10"/>
<text text-anchor="start" x="37.63" y="-15.4" font-family="Times-12" font-size="14.00"> &#160;Declarations</text>
<polygon fill="#8dd3c7" stroke="transparent" points="127,-10 127,-30 147,-30 147,-10 127,-10"/>
<text text-anchor="start" x="150.73" y="-15.4" font-family="Times-12" font-size="14.00"> &#160;Module</text>
<polygon fill="#80b1d3" stroke="transparent" points="213,-10 213,-30 233,-30 233,-10 213,-10"/>
<text text-anchor="start" x="236.78" y="-15.4" font-family="Times-12" font-size="14.00"> &#160;Bootstrap</text>
<polygon fill="#fdb462" stroke="transparent" points="310,-10 310,-30 330,-30 330,-10 310,-10"/>
<text text-anchor="start" x="333.67" y="-15.4" font-family="Times-12" font-size="14.00"> &#160;Providers</text>
<polygon fill="#fb8072" stroke="transparent" points="406,-10 406,-30 426,-30 426,-10 406,-10"/>
<text text-anchor="start" x="429.73" y="-15.4" font-family="Times-12" font-size="14.00"> &#160;Exports</text>
<g id="clust1" class="cluster">
<title>cluster_PipesModule</title>
<polygon fill="none" stroke="black" stroke-dasharray="1,5" points="98,-70 98,-268 398,-268 398,-70 98,-70"/>
</g>
<g id="clust6" class="cluster">
<title>cluster_PipesModule_exports</title>
<polygon fill="none" stroke="black" points="106,-208 106,-260 390,-260 390,-208 106,-208"/>
</g>
<g id="clust2" class="cluster">
<title>cluster_PipesModule_declarations</title>
<polygon fill="none" stroke="black" points="109,-78 109,-130 387,-130 387,-78 109,-78"/>
</g>
<!-- CortarTextoPipe -->
<g id="node1" class="node">
<title>CortarTextoPipe</title>
<polygon fill="#ffffb3" stroke="black" points="378.81,-122 269.19,-122 269.19,-86 378.81,-86 378.81,-122"/>
<text text-anchor="middle" x="324" y="-99.8" font-family="Times,serif" font-size="14.00">CortarTextoPipe</text>
</g>
<!-- PipesModule -->
<g id="node3" class="node">
<title>PipesModule</title>
<polygon fill="#8dd3c7" stroke="black" points="229.88,-187 226.88,-191 205.88,-191 202.88,-187 140.12,-187 140.12,-151 229.88,-151 229.88,-187"/>
<text text-anchor="middle" x="185" y="-164.8" font-family="Times,serif" font-size="14.00">PipesModule</text>
</g>
<!-- CortarTextoPipe&#45;&gt;PipesModule -->
<g id="edge1" class="edge">
<title>CortarTextoPipe&#45;&gt;PipesModule</title>
<path fill="none" stroke="black" d="M342.3,-122.02C342.3,-139.37 342.3,-163 342.3,-163 342.3,-163 240.08,-163 240.08,-163"/>
<polygon fill="black" stroke="black" points="240.08,-159.5 230.08,-163 240.08,-166.5 240.08,-159.5"/>
</g>
<!-- InicialesNombrePipe -->
<g id="node2" class="node">
<title>InicialesNombrePipe</title>
<polygon fill="#ffffb3" stroke="black" points="251.18,-122 116.82,-122 116.82,-86 251.18,-86 251.18,-122"/>
<text text-anchor="middle" x="184" y="-99.8" font-family="Times,serif" font-size="14.00">InicialesNombrePipe</text>
</g>
<!-- InicialesNombrePipe&#45;&gt;PipesModule -->
<g id="edge2" class="edge">
<title>InicialesNombrePipe&#45;&gt;PipesModule</title>
<path fill="none" stroke="black" d="M185,-122.11C185,-122.11 185,-140.99 185,-140.99"/>
<polygon fill="black" stroke="black" points="181.5,-140.99 185,-150.99 188.5,-140.99 181.5,-140.99"/>
</g>
<!-- CortarTextoPipe  -->
<g id="node4" class="node">
<title>CortarTextoPipe </title>
<polygon fill="#fb8072" stroke="black" points="382.31,-252 269.69,-252 269.69,-216 382.31,-216 382.31,-252"/>
<text text-anchor="middle" x="326" y="-229.8" font-family="Times,serif" font-size="14.00">CortarTextoPipe </text>
</g>
<!-- PipesModule&#45;&gt;CortarTextoPipe  -->
<g id="edge3" class="edge">
<title>PipesModule&#45;&gt;CortarTextoPipe </title>
<path fill="none" stroke="black" stroke-dasharray="5,2" d="M230.04,-175C264.42,-175 305.95,-175 305.95,-175 305.95,-175 305.95,-205.98 305.95,-205.98"/>
<polygon fill="black" stroke="black" points="302.45,-205.98 305.95,-215.98 309.45,-205.98 302.45,-205.98"/>
</g>
<!-- InicialesNombrePipe  -->
<g id="node5" class="node">
<title>InicialesNombrePipe </title>
<polygon fill="#fb8072" stroke="black" points="251.68,-252 114.32,-252 114.32,-216 251.68,-216 251.68,-252"/>
<text text-anchor="middle" x="183" y="-229.8" font-family="Times,serif" font-size="14.00">InicialesNombrePipe </text>
</g>
<!-- PipesModule&#45;&gt;InicialesNombrePipe  -->
<g id="edge4" class="edge">
<title>PipesModule&#45;&gt;InicialesNombrePipe </title>
<path fill="none" stroke="black" stroke-dasharray="5,2" d="M185,-187.11C185,-187.11 185,-205.99 185,-205.99"/>
<polygon fill="black" stroke="black" points="181.5,-205.99 185,-215.99 188.5,-205.99 181.5,-205.99"/>
</g>
</g>
</svg>
