<?xml version="1.0" encoding="UTF-8" standalone="no"?>
<!DOCTYPE svg PUBLIC "-//W3C//DTD SVG 1.1//EN"
 "http://www.w3.org/Graphics/SVG/1.1/DTD/svg11.dtd">
<!-- Generated by graphviz version 2.47.0 (20210316.0004)
 -->
<!-- Title: dependencies Pages: 1 -->
<svg width="618pt" height="211pt"
 viewBox="0.00 0.00 618.00 211.00" xmlns="http://www.w3.org/2000/svg" xmlns:xlink="http://www.w3.org/1999/xlink">
<g id="graph0" class="graph" transform="scale(1 1) rotate(0) translate(4 207)">
<title>dependencies</title>
<polygon fill="white" stroke="transparent" points="-4,4 -4,-207 614,-207 614,4 -4,4"/>
<text text-anchor="start" x="284.01" y="-42.4" font-family="Times-12" font-weight="bold" font-size="14.00">Legend</text>
<polygon fill="#ffffb3" stroke="transparent" points="71,-10 71,-30 91,-30 91,-10 71,-10"/>
<text text-anchor="start" x="94.63" y="-15.4" font-family="Times-12" font-size="14.00"> &#160;Declarations</text>
<polygon fill="#8dd3c7" stroke="transparent" points="184,-10 184,-30 204,-30 204,-10 184,-10"/>
<text text-anchor="start" x="207.73" y="-15.4" font-family="Times-12" font-size="14.00"> &#160;Module</text>
<polygon fill="#80b1d3" stroke="transparent" points="270,-10 270,-30 290,-30 290,-10 270,-10"/>
<text text-anchor="start" x="293.78" y="-15.4" font-family="Times-12" font-size="14.00"> &#160;Bootstrap</text>
<polygon fill="#fdb462" stroke="transparent" points="367,-10 367,-30 387,-30 387,-10 367,-10"/>
<text text-anchor="start" x="390.67" y="-15.4" font-family="Times-12" font-size="14.00"> &#160;Providers</text>
<polygon fill="#fb8072" stroke="transparent" points="463,-10 463,-30 483,-30 483,-10 463,-10"/>
<text text-anchor="start" x="486.73" y="-15.4" font-family="Times-12" font-size="14.00"> &#160;Exports</text>
<g id="clust1" class="cluster">
<title>cluster_AuthModule</title>
<polygon fill="none" stroke="black" stroke-dasharray="1,5" points="8,-70 8,-195 602,-195 602,-70 8,-70"/>
</g>
<g id="clust4" class="cluster">
<title>cluster_AuthModule_imports</title>
<polygon fill="none" stroke="black" points="150,-78 150,-130 594,-130 594,-78 150,-78"/>
</g>
<g id="clust2" class="cluster">
<title>cluster_AuthModule_declarations</title>
<polygon fill="none" stroke="black" points="16,-78 16,-130 142,-130 142,-78 16,-78"/>
</g>
<!-- AuthComponent -->
<g id="node1" class="node">
<title>AuthComponent</title>
<polygon fill="#ffffb3" stroke="black" points="133.83,-122 24.17,-122 24.17,-86 133.83,-86 133.83,-122"/>
<text text-anchor="middle" x="79" y="-99.8" font-family="Times,serif" font-size="14.00">AuthComponent</text>
</g>
<!-- AuthModule -->
<g id="node2" class="node">
<title>AuthModule</title>
<polygon fill="#8dd3c7" stroke="black" points="343.55,-187 340.55,-191 319.55,-191 316.55,-187 256.45,-187 256.45,-151 343.55,-151 343.55,-187"/>
<text text-anchor="middle" x="300" y="-164.8" font-family="Times,serif" font-size="14.00">AuthModule</text>
</g>
<!-- AuthComponent&#45;&gt;AuthModule -->
<g id="edge1" class="edge">
<title>AuthComponent&#45;&gt;AuthModule</title>
<path fill="none" stroke="black" d="M79,-122.11C79,-141.34 79,-169 79,-169 79,-169 246.34,-169 246.34,-169"/>
<polygon fill="black" stroke="black" points="246.34,-172.5 256.34,-169 246.34,-165.5 246.34,-172.5"/>
</g>
<!-- AuthRoutingModule -->
<g id="node3" class="node">
<title>AuthRoutingModule</title>
<polygon fill="#8dd3c7" stroke="black" points="586.17,-122 583.17,-126 562.17,-126 559.17,-122 453.83,-122 453.83,-86 586.17,-86 586.17,-122"/>
<text text-anchor="middle" x="520" y="-99.8" font-family="Times,serif" font-size="14.00">AuthRoutingModule</text>
</g>
<!-- AuthRoutingModule&#45;&gt;AuthModule -->
<g id="edge2" class="edge">
<title>AuthRoutingModule&#45;&gt;AuthModule</title>
<path fill="none" stroke="black" d="M520,-122.11C520,-141.34 520,-169 520,-169 520,-169 353.73,-169 353.73,-169"/>
<polygon fill="black" stroke="black" points="353.73,-165.5 343.73,-169 353.73,-172.5 353.73,-165.5"/>
</g>
<!-- FormLoginModule -->
<g id="node4" class="node">
<title>FormLoginModule</title>
<polygon fill="#8dd3c7" stroke="black" points="435.83,-122 432.83,-126 411.83,-126 408.83,-122 312.17,-122 312.17,-86 435.83,-86 435.83,-122"/>
<text text-anchor="middle" x="374" y="-99.8" font-family="Times,serif" font-size="14.00">FormLoginModule</text>
</g>
<!-- FormLoginModule&#45;&gt;AuthModule -->
<g id="edge3" class="edge">
<title>FormLoginModule&#45;&gt;AuthModule</title>
<path fill="none" stroke="black" d="M328.06,-122.11C328.06,-122.11 328.06,-140.99 328.06,-140.99"/>
<polygon fill="black" stroke="black" points="324.56,-140.99 328.06,-150.99 331.56,-140.99 324.56,-140.99"/>
</g>
<!-- FormRegisterModule -->
<g id="node5" class="node">
<title>FormRegisterModule</title>
<polygon fill="#8dd3c7" stroke="black" points="294.04,-122 291.04,-126 270.04,-126 267.04,-122 157.96,-122 157.96,-86 294.04,-86 294.04,-122"/>
<text text-anchor="middle" x="226" y="-99.8" font-family="Times,serif" font-size="14.00">FormRegisterModule</text>
</g>
<!-- FormRegisterModule&#45;&gt;AuthModule -->
<g id="edge4" class="edge">
<title>FormRegisterModule&#45;&gt;AuthModule</title>
<path fill="none" stroke="black" d="M275.25,-122.11C275.25,-122.11 275.25,-140.99 275.25,-140.99"/>
<polygon fill="black" stroke="black" points="271.75,-140.99 275.25,-150.99 278.75,-140.99 271.75,-140.99"/>
</g>
</g>
</svg>
