<?xml version="1.0" encoding="UTF-8" standalone="no"?>
<!DOCTYPE svg PUBLIC "-//W3C//DTD SVG 1.1//EN"
 "http://www.w3.org/Graphics/SVG/1.1/DTD/svg11.dtd">
<!-- Generated by graphviz version 2.47.0 (20210316.0004)
 -->
<!-- Title: dependencies Pages: 1 -->
<svg width="1185pt" height="284pt"
 viewBox="0.00 0.00 1185.00 284.00" xmlns="http://www.w3.org/2000/svg" xmlns:xlink="http://www.w3.org/1999/xlink">
<g id="graph0" class="graph" transform="scale(1 1) rotate(0) translate(4 280)">
<title>dependencies</title>
<polygon fill="white" stroke="transparent" points="-4,4 -4,-280 1181,-280 1181,4 -4,4"/>
<text text-anchor="start" x="567.51" y="-42.4" font-family="Times-12" font-weight="bold" font-size="14.00">Legend</text>
<polygon fill="#ffffb3" stroke="transparent" points="354.5,-10 354.5,-30 374.5,-30 374.5,-10 354.5,-10"/>
<text text-anchor="start" x="378.13" y="-15.4" font-family="Times-12" font-size="14.00"> &#160;Declarations</text>
<polygon fill="#8dd3c7" stroke="transparent" points="467.5,-10 467.5,-30 487.5,-30 487.5,-10 467.5,-10"/>
<text text-anchor="start" x="491.23" y="-15.4" font-family="Times-12" font-size="14.00"> &#160;Module</text>
<polygon fill="#80b1d3" stroke="transparent" points="553.5,-10 553.5,-30 573.5,-30 573.5,-10 553.5,-10"/>
<text text-anchor="start" x="577.28" y="-15.4" font-family="Times-12" font-size="14.00"> &#160;Bootstrap</text>
<polygon fill="#fdb462" stroke="transparent" points="650.5,-10 650.5,-30 670.5,-30 670.5,-10 650.5,-10"/>
<text text-anchor="start" x="674.17" y="-15.4" font-family="Times-12" font-size="14.00"> &#160;Providers</text>
<polygon fill="#fb8072" stroke="transparent" points="746.5,-10 746.5,-30 766.5,-30 766.5,-10 746.5,-10"/>
<text text-anchor="start" x="770.23" y="-15.4" font-family="Times-12" font-size="14.00"> &#160;Exports</text>
<g id="clust1" class="cluster">
<title>cluster_SharedModule</title>
<polygon fill="none" stroke="black" stroke-dasharray="1,5" points="8,-70 8,-268 1169,-268 1169,-70 8,-70"/>
</g>
<g id="clust10" class="cluster">
<title>cluster_SharedModule_exports</title>
<polygon fill="none" stroke="black" points="236,-208 236,-260 957,-260 957,-208 236,-208"/>
</g>
<g id="clust2" class="cluster">
<title>cluster_SharedModule_declarations</title>
<polygon fill="none" stroke="black" points="256,-78 256,-130 1161,-130 1161,-78 256,-78"/>
</g>
<g id="clust9" class="cluster">
<title>cluster_SharedModule_imports</title>
<polygon fill="none" stroke="black" points="16,-78 16,-130 248,-130 248,-78 16,-78"/>
</g>
<!-- CardsComponent -->
<g id="node1" class="node">
<title>CardsComponent</title>
<polygon fill="#ffffb3" stroke="black" points="1152.99,-122 1039.01,-122 1039.01,-86 1152.99,-86 1152.99,-122"/>
<text text-anchor="middle" x="1096" y="-99.8" font-family="Times,serif" font-size="14.00">CardsComponent</text>
</g>
<!-- SharedModule -->
<g id="node7" class="node">
<title>SharedModule</title>
<polygon fill="#8dd3c7" stroke="black" points="649.42,-187 646.42,-191 625.42,-191 622.42,-187 550.58,-187 550.58,-151 649.42,-151 649.42,-187"/>
<text text-anchor="middle" x="600" y="-164.8" font-family="Times,serif" font-size="14.00">SharedModule</text>
</g>
<!-- CardsComponent&#45;&gt;SharedModule -->
<g id="edge1" class="edge">
<title>CardsComponent&#45;&gt;SharedModule</title>
<path fill="none" stroke="black" d="M1096,-122.11C1096,-141.34 1096,-169 1096,-169 1096,-169 659.37,-169 659.37,-169"/>
<polygon fill="black" stroke="black" points="659.37,-165.5 649.37,-169 659.37,-172.5 659.37,-165.5"/>
</g>
<!-- CarouselComponent -->
<g id="node2" class="node">
<title>CarouselComponent</title>
<polygon fill="#ffffb3" stroke="black" points="1020.59,-122 889.41,-122 889.41,-86 1020.59,-86 1020.59,-122"/>
<text text-anchor="middle" x="955" y="-99.8" font-family="Times,serif" font-size="14.00">CarouselComponent</text>
</g>
<!-- CarouselComponent&#45;&gt;SharedModule -->
<g id="edge2" class="edge">
<title>CarouselComponent&#45;&gt;SharedModule</title>
<path fill="none" stroke="black" d="M919.1,-122.02C919.1,-139.37 919.1,-163 919.1,-163 919.1,-163 659.51,-163 659.51,-163"/>
<polygon fill="black" stroke="black" points="659.51,-159.5 649.51,-163 659.51,-166.5 659.51,-159.5"/>
</g>
<!-- FooterComponent -->
<g id="node3" class="node">
<title>FooterComponent</title>
<polygon fill="#ffffb3" stroke="black" points="871.88,-122 754.12,-122 754.12,-86 871.88,-86 871.88,-122"/>
<text text-anchor="middle" x="813" y="-99.8" font-family="Times,serif" font-size="14.00">FooterComponent</text>
</g>
<!-- FooterComponent&#45;&gt;SharedModule -->
<g id="edge3" class="edge">
<title>FooterComponent&#45;&gt;SharedModule</title>
<path fill="none" stroke="black" d="M783.68,-122.24C783.68,-137.57 783.68,-157 783.68,-157 783.68,-157 659.22,-157 659.22,-157"/>
<polygon fill="black" stroke="black" points="659.22,-153.5 649.22,-157 659.22,-160.5 659.22,-153.5"/>
</g>
<!-- LoadingComponent -->
<g id="node4" class="node">
<title>LoadingComponent</title>
<polygon fill="#ffffb3" stroke="black" points="735.99,-122 608.01,-122 608.01,-86 735.99,-86 735.99,-122"/>
<text text-anchor="middle" x="672" y="-99.8" font-family="Times,serif" font-size="14.00">LoadingComponent</text>
</g>
<!-- LoadingComponent&#45;&gt;SharedModule -->
<g id="edge4" class="edge">
<title>LoadingComponent&#45;&gt;SharedModule</title>
<path fill="none" stroke="black" d="M628.61,-122.11C628.61,-122.11 628.61,-140.99 628.61,-140.99"/>
<polygon fill="black" stroke="black" points="625.11,-140.99 628.61,-150.99 632.11,-140.99 625.11,-140.99"/>
</g>
<!-- NavBarComponent -->
<g id="node5" class="node">
<title>NavBarComponent</title>
<polygon fill="#ffffb3" stroke="black" points="590.37,-122 465.63,-122 465.63,-86 590.37,-86 590.37,-122"/>
<text text-anchor="middle" x="528" y="-99.8" font-family="Times,serif" font-size="14.00">NavBarComponent</text>
</g>
<!-- NavBarComponent&#45;&gt;SharedModule -->
<g id="edge5" class="edge">
<title>NavBarComponent&#45;&gt;SharedModule</title>
<path fill="none" stroke="black" d="M570.61,-122.11C570.61,-122.11 570.61,-140.99 570.61,-140.99"/>
<polygon fill="black" stroke="black" points="567.11,-140.99 570.61,-150.99 574.11,-140.99 567.11,-140.99"/>
</g>
<!-- PoliticaPrivacidadComponent -->
<g id="node6" class="node">
<title>PoliticaPrivacidadComponent</title>
<polygon fill="#ffffb3" stroke="black" points="447.97,-122 264.03,-122 264.03,-86 447.97,-86 447.97,-122"/>
<text text-anchor="middle" x="356" y="-99.8" font-family="Times,serif" font-size="14.00">PoliticaPrivacidadComponent</text>
</g>
<!-- PoliticaPrivacidadComponent&#45;&gt;SharedModule -->
<g id="edge6" class="edge">
<title>PoliticaPrivacidadComponent&#45;&gt;SharedModule</title>
<path fill="none" stroke="black" d="M419.12,-122.24C419.12,-137.57 419.12,-157 419.12,-157 419.12,-157 540.57,-157 540.57,-157"/>
<polygon fill="black" stroke="black" points="540.57,-160.5 550.57,-157 540.57,-153.5 540.57,-160.5"/>
</g>
<!-- CardsComponent  -->
<g id="node10" class="node">
<title>CardsComponent </title>
<polygon fill="#fb8072" stroke="black" points="948.99,-252 831.01,-252 831.01,-216 948.99,-216 948.99,-252"/>
<text text-anchor="middle" x="890" y="-229.8" font-family="Times,serif" font-size="14.00">CardsComponent </text>
</g>
<!-- SharedModule&#45;&gt;CardsComponent  -->
<g id="edge9" class="edge">
<title>SharedModule&#45;&gt;CardsComponent </title>
<path fill="none" stroke="black" stroke-dasharray="5,2" d="M649.41,-175C722.68,-175 851.6,-175 851.6,-175 851.6,-175 851.6,-205.98 851.6,-205.98"/>
<polygon fill="black" stroke="black" points="848.1,-205.98 851.6,-215.98 855.1,-205.98 848.1,-205.98"/>
</g>
<!-- CarouselComponent  -->
<g id="node11" class="node">
<title>CarouselComponent </title>
<polygon fill="#fb8072" stroke="black" points="813.09,-252 678.91,-252 678.91,-216 813.09,-216 813.09,-252"/>
<text text-anchor="middle" x="746" y="-229.8" font-family="Times,serif" font-size="14.00">CarouselComponent </text>
</g>
<!-- SharedModule&#45;&gt;CarouselComponent  -->
<g id="edge10" class="edge">
<title>SharedModule&#45;&gt;CarouselComponent </title>
<path fill="none" stroke="black" stroke-dasharray="5,2" d="M649.28,-181C677.5,-181 707.35,-181 707.35,-181 707.35,-181 707.35,-205.76 707.35,-205.76"/>
<polygon fill="black" stroke="black" points="703.85,-205.76 707.35,-215.76 710.85,-205.76 703.85,-205.76"/>
</g>
<!-- FooterComponent  -->
<g id="node12" class="node">
<title>FooterComponent </title>
<polygon fill="#fb8072" stroke="black" points="660.88,-252 539.12,-252 539.12,-216 660.88,-216 660.88,-252"/>
<text text-anchor="middle" x="600" y="-229.8" font-family="Times,serif" font-size="14.00">FooterComponent </text>
</g>
<!-- SharedModule&#45;&gt;FooterComponent  -->
<g id="edge11" class="edge">
<title>SharedModule&#45;&gt;FooterComponent </title>
<path fill="none" stroke="black" stroke-dasharray="5,2" d="M600,-187.11C600,-187.11 600,-205.99 600,-205.99"/>
<polygon fill="black" stroke="black" points="596.5,-205.99 600,-215.99 603.5,-205.99 596.5,-205.99"/>
</g>
<!-- LoadingComponent  -->
<g id="node13" class="node">
<title>LoadingComponent </title>
<polygon fill="#fb8072" stroke="black" points="521.99,-252 390.01,-252 390.01,-216 521.99,-216 521.99,-252"/>
<text text-anchor="middle" x="456" y="-229.8" font-family="Times,serif" font-size="14.00">LoadingComponent </text>
</g>
<!-- SharedModule&#45;&gt;LoadingComponent  -->
<g id="edge12" class="edge">
<title>SharedModule&#45;&gt;LoadingComponent </title>
<path fill="none" stroke="black" stroke-dasharray="5,2" d="M550.56,-181C522.79,-181 493.66,-181 493.66,-181 493.66,-181 493.66,-205.76 493.66,-205.76"/>
<polygon fill="black" stroke="black" points="490.16,-205.76 493.66,-215.76 497.16,-205.76 490.16,-205.76"/>
</g>
<!-- NavBarComponent  -->
<g id="node14" class="node">
<title>NavBarComponent </title>
<polygon fill="#fb8072" stroke="black" points="372.37,-252 243.63,-252 243.63,-216 372.37,-216 372.37,-252"/>
<text text-anchor="middle" x="308" y="-229.8" font-family="Times,serif" font-size="14.00">NavBarComponent </text>
</g>
<!-- SharedModule&#45;&gt;NavBarComponent  -->
<g id="edge13" class="edge">
<title>SharedModule&#45;&gt;NavBarComponent </title>
<path fill="none" stroke="black" stroke-dasharray="5,2" d="M550.57,-175C469.73,-175 318.1,-175 318.1,-175 318.1,-175 318.1,-205.98 318.1,-205.98"/>
<polygon fill="black" stroke="black" points="314.6,-205.98 318.1,-215.98 321.6,-205.98 314.6,-205.98"/>
</g>
<!-- DirectivesModule -->
<g id="node8" class="node">
<title>DirectivesModule</title>
<polygon fill="#8dd3c7" stroke="black" points="239.58,-122 236.58,-126 215.58,-126 212.58,-122 122.42,-122 122.42,-86 239.58,-86 239.58,-122"/>
<text text-anchor="middle" x="181" y="-99.8" font-family="Times,serif" font-size="14.00">DirectivesModule</text>
</g>
<!-- DirectivesModule&#45;&gt;SharedModule -->
<g id="edge7" class="edge">
<title>DirectivesModule&#45;&gt;SharedModule</title>
<path fill="none" stroke="black" d="M181,-122.02C181,-139.37 181,-163 181,-163 181,-163 540.7,-163 540.7,-163"/>
<polygon fill="black" stroke="black" points="540.7,-166.5 550.7,-163 540.7,-159.5 540.7,-166.5"/>
</g>
<!-- RouterLink -->
<g id="node9" class="node">
<title>RouterLink</title>
<polygon fill="#8dd3c7" stroke="black" points="104.05,-122 101.05,-126 80.05,-126 77.05,-122 23.95,-122 23.95,-86 104.05,-86 104.05,-122"/>
<text text-anchor="middle" x="64" y="-99.8" font-family="Times,serif" font-size="14.00">RouterLink</text>
</g>
<!-- RouterLink&#45;&gt;SharedModule -->
<g id="edge8" class="edge">
<title>RouterLink&#45;&gt;SharedModule</title>
<path fill="none" stroke="black" d="M64,-122.11C64,-141.34 64,-169 64,-169 64,-169 540.54,-169 540.54,-169"/>
<polygon fill="black" stroke="black" points="540.54,-172.5 550.54,-169 540.54,-165.5 540.54,-172.5"/>
</g>
</g>
</svg>
