<?xml version="1.0" encoding="UTF-8" standalone="no"?>
<!DOCTYPE svg PUBLIC "-//W3C//DTD SVG 1.1//EN"
 "http://www.w3.org/Graphics/SVG/1.1/DTD/svg11.dtd">
<!-- Generated by graphviz version 2.47.0 (20210316.0004)
 -->
<!-- Title: dependencies Pages: 1 -->
<svg width="701pt" height="284pt"
 viewBox="0.00 0.00 701.00 284.00" xmlns="http://www.w3.org/2000/svg" xmlns:xlink="http://www.w3.org/1999/xlink">
<g id="graph0" class="graph" transform="scale(1 1) rotate(0) translate(4 280)">
<title>dependencies</title>
<polygon fill="white" stroke="transparent" points="-4,4 -4,-280 697,-280 697,4 -4,4"/>
<text text-anchor="start" x="325.51" y="-42.4" font-family="Times-12" font-weight="bold" font-size="14.00">Legend</text>
<polygon fill="#ffffb3" stroke="transparent" points="112.5,-10 112.5,-30 132.5,-30 132.5,-10 112.5,-10"/>
<text text-anchor="start" x="136.13" y="-15.4" font-family="Times-12" font-size="14.00"> &#160;Declarations</text>
<polygon fill="#8dd3c7" stroke="transparent" points="225.5,-10 225.5,-30 245.5,-30 245.5,-10 225.5,-10"/>
<text text-anchor="start" x="249.23" y="-15.4" font-family="Times-12" font-size="14.00"> &#160;Module</text>
<polygon fill="#80b1d3" stroke="transparent" points="311.5,-10 311.5,-30 331.5,-30 331.5,-10 311.5,-10"/>
<text text-anchor="start" x="335.28" y="-15.4" font-family="Times-12" font-size="14.00"> &#160;Bootstrap</text>
<polygon fill="#fdb462" stroke="transparent" points="408.5,-10 408.5,-30 428.5,-30 428.5,-10 408.5,-10"/>
<text text-anchor="start" x="432.17" y="-15.4" font-family="Times-12" font-size="14.00"> &#160;Providers</text>
<polygon fill="#fb8072" stroke="transparent" points="504.5,-10 504.5,-30 524.5,-30 524.5,-10 504.5,-10"/>
<text text-anchor="start" x="528.23" y="-15.4" font-family="Times-12" font-size="14.00"> &#160;Exports</text>
<g id="clust1" class="cluster">
<title>cluster_SharedModule</title>
<polygon fill="none" stroke="black" stroke-dasharray="1,5" points="8,-70 8,-268 685,-268 685,-70 8,-70"/>
</g>
<g id="clust8" class="cluster">
<title>cluster_SharedModule_exports</title>
<polygon fill="none" stroke="black" points="61,-208 61,-260 633,-260 633,-208 61,-208"/>
</g>
<g id="clust7" class="cluster">
<title>cluster_SharedModule_imports</title>
<polygon fill="none" stroke="black" points="581,-78 581,-130 677,-130 677,-78 581,-78"/>
</g>
<g id="clust2" class="cluster">
<title>cluster_SharedModule_declarations</title>
<polygon fill="none" stroke="black" points="16,-78 16,-130 573,-130 573,-78 16,-78"/>
</g>
<!-- CardsComponent -->
<g id="node1" class="node">
<title>CardsComponent</title>
<polygon fill="#ffffb3" stroke="black" points="564.99,-122 451.01,-122 451.01,-86 564.99,-86 564.99,-122"/>
<text text-anchor="middle" x="508" y="-99.8" font-family="Times,serif" font-size="14.00">CardsComponent</text>
</g>
<!-- SharedModule -->
<g id="node5" class="node">
<title>SharedModule</title>
<polygon fill="#8dd3c7" stroke="black" points="416.42,-187 413.42,-191 392.42,-191 389.42,-187 317.58,-187 317.58,-151 416.42,-151 416.42,-187"/>
<text text-anchor="middle" x="367" y="-164.8" font-family="Times,serif" font-size="14.00">SharedModule</text>
</g>
<!-- CardsComponent&#45;&gt;SharedModule -->
<g id="edge1" class="edge">
<title>CardsComponent&#45;&gt;SharedModule</title>
<path fill="none" stroke="black" d="M470.15,-122.03C470.15,-138.4 470.15,-160 470.15,-160 470.15,-160 426.46,-160 426.46,-160"/>
<polygon fill="black" stroke="black" points="426.46,-156.5 416.46,-160 426.46,-163.5 426.46,-156.5"/>
</g>
<!-- CarouselComponent -->
<g id="node2" class="node">
<title>CarouselComponent</title>
<polygon fill="#ffffb3" stroke="black" points="432.59,-122 301.41,-122 301.41,-86 432.59,-86 432.59,-122"/>
<text text-anchor="middle" x="367" y="-99.8" font-family="Times,serif" font-size="14.00">CarouselComponent</text>
</g>
<!-- CarouselComponent&#45;&gt;SharedModule -->
<g id="edge2" class="edge">
<title>CarouselComponent&#45;&gt;SharedModule</title>
<path fill="none" stroke="black" d="M367,-122.11C367,-122.11 367,-140.99 367,-140.99"/>
<polygon fill="black" stroke="black" points="363.5,-140.99 367,-150.99 370.5,-140.99 363.5,-140.99"/>
</g>
<!-- FooterComponent -->
<g id="node3" class="node">
<title>FooterComponent</title>
<polygon fill="#ffffb3" stroke="black" points="283.88,-122 166.12,-122 166.12,-86 283.88,-86 283.88,-122"/>
<text text-anchor="middle" x="225" y="-99.8" font-family="Times,serif" font-size="14.00">FooterComponent</text>
</g>
<!-- FooterComponent&#45;&gt;SharedModule -->
<g id="edge3" class="edge">
<title>FooterComponent&#45;&gt;SharedModule</title>
<path fill="none" stroke="black" d="M249.62,-122.03C249.62,-138.4 249.62,-160 249.62,-160 249.62,-160 307.56,-160 307.56,-160"/>
<polygon fill="black" stroke="black" points="307.56,-163.5 317.56,-160 307.56,-156.5 307.56,-163.5"/>
</g>
<!-- NavBarComponent -->
<g id="node4" class="node">
<title>NavBarComponent</title>
<polygon fill="#ffffb3" stroke="black" points="148.37,-122 23.63,-122 23.63,-86 148.37,-86 148.37,-122"/>
<text text-anchor="middle" x="86" y="-99.8" font-family="Times,serif" font-size="14.00">NavBarComponent</text>
</g>
<!-- NavBarComponent&#45;&gt;SharedModule -->
<g id="edge4" class="edge">
<title>NavBarComponent&#45;&gt;SharedModule</title>
<path fill="none" stroke="black" d="M108.62,-122.11C108.62,-141.34 108.62,-169 108.62,-169 108.62,-169 307.49,-169 307.49,-169"/>
<polygon fill="black" stroke="black" points="307.49,-172.5 317.49,-169 307.49,-165.5 307.49,-172.5"/>
</g>
<!-- CardsComponent  -->
<g id="node7" class="node">
<title>CardsComponent </title>
<polygon fill="#fb8072" stroke="black" points="624.99,-252 507.01,-252 507.01,-216 624.99,-216 624.99,-252"/>
<text text-anchor="middle" x="566" y="-229.8" font-family="Times,serif" font-size="14.00">CardsComponent </text>
</g>
<!-- SharedModule&#45;&gt;CardsComponent  -->
<g id="edge6" class="edge">
<title>SharedModule&#45;&gt;CardsComponent </title>
<path fill="none" stroke="black" stroke-dasharray="5,2" d="M416.37,-178C466.29,-178 536.12,-178 536.12,-178 536.12,-178 536.12,-205.97 536.12,-205.97"/>
<polygon fill="black" stroke="black" points="532.63,-205.97 536.12,-215.97 539.63,-205.97 532.63,-205.97"/>
</g>
<!-- CarouselComponent  -->
<g id="node8" class="node">
<title>CarouselComponent </title>
<polygon fill="#fb8072" stroke="black" points="489.09,-252 354.91,-252 354.91,-216 489.09,-216 489.09,-252"/>
<text text-anchor="middle" x="422" y="-229.8" font-family="Times,serif" font-size="14.00">CarouselComponent </text>
</g>
<!-- SharedModule&#45;&gt;CarouselComponent  -->
<g id="edge7" class="edge">
<title>SharedModule&#45;&gt;CarouselComponent </title>
<path fill="none" stroke="black" stroke-dasharray="5,2" d="M385.46,-187.11C385.46,-187.11 385.46,-205.99 385.46,-205.99"/>
<polygon fill="black" stroke="black" points="381.96,-205.99 385.46,-215.99 388.96,-205.99 381.96,-205.99"/>
</g>
<!-- FooterComponent  -->
<g id="node9" class="node">
<title>FooterComponent </title>
<polygon fill="#fb8072" stroke="black" points="336.88,-252 215.12,-252 215.12,-216 336.88,-216 336.88,-252"/>
<text text-anchor="middle" x="276" y="-229.8" font-family="Times,serif" font-size="14.00">FooterComponent </text>
</g>
<!-- SharedModule&#45;&gt;FooterComponent  -->
<g id="edge8" class="edge">
<title>SharedModule&#45;&gt;FooterComponent </title>
<path fill="none" stroke="black" stroke-dasharray="5,2" d="M327.24,-187.11C327.24,-187.11 327.24,-205.99 327.24,-205.99"/>
<polygon fill="black" stroke="black" points="323.74,-205.99 327.24,-215.99 330.74,-205.99 323.74,-205.99"/>
</g>
<!-- NavBarComponent  -->
<g id="node10" class="node">
<title>NavBarComponent </title>
<polygon fill="#fb8072" stroke="black" points="197.37,-252 68.63,-252 68.63,-216 197.37,-216 197.37,-252"/>
<text text-anchor="middle" x="133" y="-229.8" font-family="Times,serif" font-size="14.00">NavBarComponent </text>
</g>
<!-- SharedModule&#45;&gt;NavBarComponent  -->
<g id="edge9" class="edge">
<title>SharedModule&#45;&gt;NavBarComponent </title>
<path fill="none" stroke="black" stroke-dasharray="5,2" d="M317.32,-178C262.41,-178 181.62,-178 181.62,-178 181.62,-178 181.62,-205.97 181.62,-205.97"/>
<polygon fill="black" stroke="black" points="178.12,-205.97 181.62,-215.97 185.12,-205.97 178.12,-205.97"/>
</g>
<!-- RouterLink -->
<g id="node6" class="node">
<title>RouterLink</title>
<polygon fill="#8dd3c7" stroke="black" points="669.05,-122 666.05,-126 645.05,-126 642.05,-122 588.95,-122 588.95,-86 669.05,-86 669.05,-122"/>
<text text-anchor="middle" x="629" y="-99.8" font-family="Times,serif" font-size="14.00">RouterLink</text>
</g>
<!-- RouterLink&#45;&gt;SharedModule -->
<g id="edge5" class="edge">
<title>RouterLink&#45;&gt;SharedModule</title>
<path fill="none" stroke="black" d="M606.74,-122.11C606.74,-141.34 606.74,-169 606.74,-169 606.74,-169 426.38,-169 426.38,-169"/>
<polygon fill="black" stroke="black" points="426.38,-165.5 416.38,-169 426.38,-172.5 426.38,-165.5"/>
</g>
</g>
</svg>
