<?xml version="1.0" encoding="UTF-8" standalone="no"?>
<!DOCTYPE svg PUBLIC "-//W3C//DTD SVG 1.1//EN"
 "http://www.w3.org/Graphics/SVG/1.1/DTD/svg11.dtd">
<!-- Generated by graphviz version 2.47.0 (20210316.0004)
 -->
<!-- Title: dependencies Pages: 1 -->
<svg width="983pt" height="284pt"
 viewBox="0.00 0.00 983.00 284.00" xmlns="http://www.w3.org/2000/svg" xmlns:xlink="http://www.w3.org/1999/xlink">
<g id="graph0" class="graph" transform="scale(1 1) rotate(0) translate(4 280)">
<title>dependencies</title>
<polygon fill="white" stroke="transparent" points="-4,4 -4,-280 979,-280 979,4 -4,4"/>
<text text-anchor="start" x="466.51" y="-42.4" font-family="Times-12" font-weight="bold" font-size="14.00">Legend</text>
<polygon fill="#ffffb3" stroke="transparent" points="253.5,-10 253.5,-30 273.5,-30 273.5,-10 253.5,-10"/>
<text text-anchor="start" x="277.13" y="-15.4" font-family="Times-12" font-size="14.00"> &#160;Declarations</text>
<polygon fill="#8dd3c7" stroke="transparent" points="366.5,-10 366.5,-30 386.5,-30 386.5,-10 366.5,-10"/>
<text text-anchor="start" x="390.23" y="-15.4" font-family="Times-12" font-size="14.00"> &#160;Module</text>
<polygon fill="#80b1d3" stroke="transparent" points="452.5,-10 452.5,-30 472.5,-30 472.5,-10 452.5,-10"/>
<text text-anchor="start" x="476.28" y="-15.4" font-family="Times-12" font-size="14.00"> &#160;Bootstrap</text>
<polygon fill="#fdb462" stroke="transparent" points="549.5,-10 549.5,-30 569.5,-30 569.5,-10 549.5,-10"/>
<text text-anchor="start" x="573.17" y="-15.4" font-family="Times-12" font-size="14.00"> &#160;Providers</text>
<polygon fill="#fb8072" stroke="transparent" points="645.5,-10 645.5,-30 665.5,-30 665.5,-10 645.5,-10"/>
<text text-anchor="start" x="669.23" y="-15.4" font-family="Times-12" font-size="14.00"> &#160;Exports</text>
<g id="clust1" class="cluster">
<title>cluster_SharedModule</title>
<polygon fill="none" stroke="black" stroke-dasharray="1,5" points="8,-70 8,-268 967,-268 967,-70 8,-70"/>
</g>
<g id="clust2" class="cluster">
<title>cluster_SharedModule_declarations</title>
<polygon fill="none" stroke="black" points="256,-78 256,-130 959,-130 959,-78 256,-78"/>
</g>
<g id="clust9" class="cluster">
<title>cluster_SharedModule_exports</title>
<polygon fill="none" stroke="black" points="106,-208 106,-260 827,-260 827,-208 106,-208"/>
</g>
<g id="clust8" class="cluster">
<title>cluster_SharedModule_imports</title>
<polygon fill="none" stroke="black" points="16,-78 16,-130 248,-130 248,-78 16,-78"/>
</g>
<!-- CardsComponent -->
<g id="node1" class="node">
<title>CardsComponent</title>
<polygon fill="#ffffb3" stroke="black" points="950.99,-122 837.01,-122 837.01,-86 950.99,-86 950.99,-122"/>
<text text-anchor="middle" x="894" y="-99.8" font-family="Times,serif" font-size="14.00">CardsComponent</text>
</g>
<!-- SharedModule -->
<g id="node6" class="node">
<title>SharedModule</title>
<polygon fill="#8dd3c7" stroke="black" points="519.42,-187 516.42,-191 495.42,-191 492.42,-187 420.58,-187 420.58,-151 519.42,-151 519.42,-187"/>
<text text-anchor="middle" x="470" y="-164.8" font-family="Times,serif" font-size="14.00">SharedModule</text>
</g>
<!-- CardsComponent&#45;&gt;SharedModule -->
<g id="edge1" class="edge">
<title>CardsComponent&#45;&gt;SharedModule</title>
<path fill="none" stroke="black" d="M894,-122.11C894,-141.34 894,-169 894,-169 894,-169 529.47,-169 529.47,-169"/>
<polygon fill="black" stroke="black" points="529.47,-165.5 519.47,-169 529.47,-172.5 529.47,-165.5"/>
</g>
<!-- CarouselComponent -->
<g id="node2" class="node">
<title>CarouselComponent</title>
<polygon fill="#ffffb3" stroke="black" points="818.59,-122 687.41,-122 687.41,-86 818.59,-86 818.59,-122"/>
<text text-anchor="middle" x="753" y="-99.8" font-family="Times,serif" font-size="14.00">CarouselComponent</text>
</g>
<!-- CarouselComponent&#45;&gt;SharedModule -->
<g id="edge2" class="edge">
<title>CarouselComponent&#45;&gt;SharedModule</title>
<path fill="none" stroke="black" d="M694.35,-122.02C694.35,-139.37 694.35,-163 694.35,-163 694.35,-163 529.24,-163 529.24,-163"/>
<polygon fill="black" stroke="black" points="529.24,-159.5 519.24,-163 529.24,-166.5 529.24,-159.5"/>
</g>
<!-- FooterComponent -->
<g id="node3" class="node">
<title>FooterComponent</title>
<polygon fill="#ffffb3" stroke="black" points="669.88,-122 552.12,-122 552.12,-86 669.88,-86 669.88,-122"/>
<text text-anchor="middle" x="611" y="-99.8" font-family="Times,serif" font-size="14.00">FooterComponent</text>
</g>
<!-- FooterComponent&#45;&gt;SharedModule -->
<g id="edge3" class="edge">
<title>FooterComponent&#45;&gt;SharedModule</title>
<path fill="none" stroke="black" d="M630.65,-122.24C630.65,-137.57 630.65,-157 630.65,-157 630.65,-157 529.51,-157 529.51,-157"/>
<polygon fill="black" stroke="black" points="529.51,-153.5 519.51,-157 529.51,-160.5 529.51,-153.5"/>
</g>
<!-- LoadingComponent -->
<g id="node4" class="node">
<title>LoadingComponent</title>
<polygon fill="#ffffb3" stroke="black" points="533.99,-122 406.01,-122 406.01,-86 533.99,-86 533.99,-122"/>
<text text-anchor="middle" x="470" y="-99.8" font-family="Times,serif" font-size="14.00">LoadingComponent</text>
</g>
<!-- LoadingComponent&#45;&gt;SharedModule -->
<g id="edge4" class="edge">
<title>LoadingComponent&#45;&gt;SharedModule</title>
<path fill="none" stroke="black" d="M470,-122.11C470,-122.11 470,-140.99 470,-140.99"/>
<polygon fill="black" stroke="black" points="466.5,-140.99 470,-150.99 473.5,-140.99 466.5,-140.99"/>
</g>
<!-- NavBarComponent -->
<g id="node5" class="node">
<title>NavBarComponent</title>
<polygon fill="#ffffb3" stroke="black" points="388.37,-122 263.63,-122 263.63,-86 388.37,-86 388.37,-122"/>
<text text-anchor="middle" x="326" y="-99.8" font-family="Times,serif" font-size="14.00">NavBarComponent</text>
</g>
<!-- NavBarComponent&#45;&gt;SharedModule -->
<g id="edge5" class="edge">
<title>NavBarComponent&#45;&gt;SharedModule</title>
<path fill="none" stroke="black" d="M346.81,-122.24C346.81,-137.57 346.81,-157 346.81,-157 346.81,-157 410.6,-157 410.6,-157"/>
<polygon fill="black" stroke="black" points="410.6,-160.5 420.6,-157 410.6,-153.5 410.6,-160.5"/>
</g>
<!-- CardsComponent  -->
<g id="node9" class="node">
<title>CardsComponent </title>
<polygon fill="#fb8072" stroke="black" points="818.99,-252 701.01,-252 701.01,-216 818.99,-216 818.99,-252"/>
<text text-anchor="middle" x="760" y="-229.8" font-family="Times,serif" font-size="14.00">CardsComponent </text>
</g>
<!-- SharedModule&#45;&gt;CardsComponent  -->
<g id="edge8" class="edge">
<title>SharedModule&#45;&gt;CardsComponent </title>
<path fill="none" stroke="black" stroke-dasharray="5,2" d="M519.51,-175C602.31,-175 759.9,-175 759.9,-175 759.9,-175 759.9,-205.98 759.9,-205.98"/>
<polygon fill="black" stroke="black" points="756.4,-205.98 759.9,-215.98 763.4,-205.98 756.4,-205.98"/>
</g>
<!-- CarouselComponent  -->
<g id="node10" class="node">
<title>CarouselComponent </title>
<polygon fill="#fb8072" stroke="black" points="683.09,-252 548.91,-252 548.91,-216 683.09,-216 683.09,-252"/>
<text text-anchor="middle" x="616" y="-229.8" font-family="Times,serif" font-size="14.00">CarouselComponent </text>
</g>
<!-- SharedModule&#45;&gt;CarouselComponent  -->
<g id="edge9" class="edge">
<title>SharedModule&#45;&gt;CarouselComponent </title>
<path fill="none" stroke="black" stroke-dasharray="5,2" d="M519.36,-181C552.96,-181 591.35,-181 591.35,-181 591.35,-181 591.35,-205.76 591.35,-205.76"/>
<polygon fill="black" stroke="black" points="587.85,-205.76 591.35,-215.76 594.85,-205.76 587.85,-205.76"/>
</g>
<!-- FooterComponent  -->
<g id="node11" class="node">
<title>FooterComponent </title>
<polygon fill="#fb8072" stroke="black" points="530.88,-252 409.12,-252 409.12,-216 530.88,-216 530.88,-252"/>
<text text-anchor="middle" x="470" y="-229.8" font-family="Times,serif" font-size="14.00">FooterComponent </text>
</g>
<!-- SharedModule&#45;&gt;FooterComponent  -->
<g id="edge10" class="edge">
<title>SharedModule&#45;&gt;FooterComponent </title>
<path fill="none" stroke="black" stroke-dasharray="5,2" d="M470,-187.11C470,-187.11 470,-205.99 470,-205.99"/>
<polygon fill="black" stroke="black" points="466.5,-205.99 470,-215.99 473.5,-205.99 466.5,-205.99"/>
</g>
<!-- LoadingComponent  -->
<g id="node12" class="node">
<title>LoadingComponent </title>
<polygon fill="#fb8072" stroke="black" points="391.99,-252 260.01,-252 260.01,-216 391.99,-216 391.99,-252"/>
<text text-anchor="middle" x="326" y="-229.8" font-family="Times,serif" font-size="14.00">LoadingComponent </text>
</g>
<!-- SharedModule&#45;&gt;LoadingComponent  -->
<g id="edge11" class="edge">
<title>SharedModule&#45;&gt;LoadingComponent </title>
<path fill="none" stroke="black" stroke-dasharray="5,2" d="M420.55,-181C372.01,-181 305.19,-181 305.19,-181 305.19,-181 305.19,-205.76 305.19,-205.76"/>
<polygon fill="black" stroke="black" points="301.69,-205.76 305.19,-215.76 308.69,-205.76 301.69,-205.76"/>
</g>
<!-- NavBarComponent  -->
<g id="node13" class="node">
<title>NavBarComponent </title>
<polygon fill="#fb8072" stroke="black" points="242.37,-252 113.63,-252 113.63,-216 242.37,-216 242.37,-252"/>
<text text-anchor="middle" x="178" y="-229.8" font-family="Times,serif" font-size="14.00">NavBarComponent </text>
</g>
<!-- SharedModule&#45;&gt;NavBarComponent  -->
<g id="edge12" class="edge">
<title>SharedModule&#45;&gt;NavBarComponent </title>
<path fill="none" stroke="black" stroke-dasharray="5,2" d="M420.77,-175C333.67,-175 161.49,-175 161.49,-175 161.49,-175 161.49,-205.98 161.49,-205.98"/>
<polygon fill="black" stroke="black" points="157.99,-205.98 161.49,-215.98 164.99,-205.98 157.99,-205.98"/>
</g>
<!-- DirectivesModule -->
<g id="node7" class="node">
<title>DirectivesModule</title>
<polygon fill="#8dd3c7" stroke="black" points="239.58,-122 236.58,-126 215.58,-126 212.58,-122 122.42,-122 122.42,-86 239.58,-86 239.58,-122"/>
<text text-anchor="middle" x="181" y="-99.8" font-family="Times,serif" font-size="14.00">DirectivesModule</text>
</g>
<!-- DirectivesModule&#45;&gt;SharedModule -->
<g id="edge6" class="edge">
<title>DirectivesModule&#45;&gt;SharedModule</title>
<path fill="none" stroke="black" d="M200.51,-122.02C200.51,-139.37 200.51,-163 200.51,-163 200.51,-163 410.57,-163 410.57,-163"/>
<polygon fill="black" stroke="black" points="410.57,-166.5 420.57,-163 410.57,-159.5 410.57,-166.5"/>
</g>
<!-- RouterLink -->
<g id="node8" class="node">
<title>RouterLink</title>
<polygon fill="#8dd3c7" stroke="black" points="104.05,-122 101.05,-126 80.05,-126 77.05,-122 23.95,-122 23.95,-86 104.05,-86 104.05,-122"/>
<text text-anchor="middle" x="64" y="-99.8" font-family="Times,serif" font-size="14.00">RouterLink</text>
</g>
<!-- RouterLink&#45;&gt;SharedModule -->
<g id="edge7" class="edge">
<title>RouterLink&#45;&gt;SharedModule</title>
<path fill="none" stroke="black" d="M64,-122.11C64,-141.34 64,-169 64,-169 64,-169 410.62,-169 410.62,-169"/>
<polygon fill="black" stroke="black" points="410.62,-172.5 420.62,-169 410.62,-165.5 410.62,-172.5"/>
</g>
</g>
</svg>
