<?xml version="1.0" encoding="UTF-8" standalone="no"?>
<!DOCTYPE svg PUBLIC "-//W3C//DTD SVG 1.1//EN"
 "http://www.w3.org/Graphics/SVG/1.1/DTD/svg11.dtd">
<!-- Generated by graphviz version 2.47.0 (20210316.0004)
 -->
<!-- Title: dependencies Pages: 1 -->
<svg width="618pt" height="211pt"
 viewBox="0.00 0.00 618.00 211.00" xmlns="http://www.w3.org/2000/svg" xmlns:xlink="http://www.w3.org/1999/xlink">
<g id="graph0" class="graph" transform="scale(1 1) rotate(0) translate(4 207)">
<title>dependencies</title>
<polygon fill="white" stroke="transparent" points="-4,4 -4,-207 614,-207 614,4 -4,4"/>
<text text-anchor="start" x="284.01" y="-42.4" font-family="Times-12" font-weight="bold" font-size="14.00">Legend</text>
<polygon fill="#ffffb3" stroke="transparent" points="71,-10 71,-30 91,-30 91,-10 71,-10"/>
<text text-anchor="start" x="94.63" y="-15.4" font-family="Times-12" font-size="14.00"> &#160;Declarations</text>
<polygon fill="#8dd3c7" stroke="transparent" points="184,-10 184,-30 204,-30 204,-10 184,-10"/>
<text text-anchor="start" x="207.73" y="-15.4" font-family="Times-12" font-size="14.00"> &#160;Module</text>
<polygon fill="#80b1d3" stroke="transparent" points="270,-10 270,-30 290,-30 290,-10 270,-10"/>
<text text-anchor="start" x="293.78" y="-15.4" font-family="Times-12" font-size="14.00"> &#160;Bootstrap</text>
<polygon fill="#fdb462" stroke="transparent" points="367,-10 367,-30 387,-30 387,-10 367,-10"/>
<text text-anchor="start" x="390.67" y="-15.4" font-family="Times-12" font-size="14.00"> &#160;Providers</text>
<polygon fill="#fb8072" stroke="transparent" points="463,-10 463,-30 483,-30 483,-10 463,-10"/>
<text text-anchor="start" x="486.73" y="-15.4" font-family="Times-12" font-size="14.00"> &#160;Exports</text>
<g id="clust1" class="cluster">
<title>cluster_AuthModule</title>
<polygon fill="none" stroke="black" stroke-dasharray="1,5" points="8,-70 8,-195 602,-195 602,-70 8,-70"/>
</g>
<g id="clust2" class="cluster">
<title>cluster_AuthModule_declarations</title>
<polygon fill="none" stroke="black" points="468,-78 468,-130 594,-130 594,-78 468,-78"/>
</g>
<g id="clust4" class="cluster">
<title>cluster_AuthModule_imports</title>
<polygon fill="none" stroke="black" points="16,-78 16,-130 460,-130 460,-78 16,-78"/>
</g>
<!-- AuthComponent -->
<g id="node1" class="node">
<title>AuthComponent</title>
<polygon fill="#ffffb3" stroke="black" points="585.83,-122 476.17,-122 476.17,-86 585.83,-86 585.83,-122"/>
<text text-anchor="middle" x="531" y="-99.8" font-family="Times,serif" font-size="14.00">AuthComponent</text>
</g>
<!-- AuthModule -->
<g id="node2" class="node">
<title>AuthModule</title>
<polygon fill="#8dd3c7" stroke="black" points="356.55,-187 353.55,-191 332.55,-191 329.55,-187 269.45,-187 269.45,-151 356.55,-151 356.55,-187"/>
<text text-anchor="middle" x="313" y="-164.8" font-family="Times,serif" font-size="14.00">AuthModule</text>
</g>
<!-- AuthComponent&#45;&gt;AuthModule -->
<g id="edge1" class="edge">
<title>AuthComponent&#45;&gt;AuthModule</title>
<path fill="none" stroke="black" d="M531,-122.11C531,-141.34 531,-169 531,-169 531,-169 366.59,-169 366.59,-169"/>
<polygon fill="black" stroke="black" points="366.59,-165.5 356.59,-169 366.59,-172.5 366.59,-165.5"/>
</g>
<!-- AuthRoutingModule -->
<g id="node3" class="node">
<title>AuthRoutingModule</title>
<polygon fill="#8dd3c7" stroke="black" points="452.17,-122 449.17,-126 428.17,-126 425.17,-122 319.83,-122 319.83,-86 452.17,-86 452.17,-122"/>
<text text-anchor="middle" x="386" y="-99.8" font-family="Times,serif" font-size="14.00">AuthRoutingModule</text>
</g>
<!-- AuthRoutingModule&#45;&gt;AuthModule -->
<g id="edge2" class="edge">
<title>AuthRoutingModule&#45;&gt;AuthModule</title>
<path fill="none" stroke="black" d="M338.22,-122.11C338.22,-122.11 338.22,-140.99 338.22,-140.99"/>
<polygon fill="black" stroke="black" points="334.72,-140.99 338.22,-150.99 341.72,-140.99 334.72,-140.99"/>
</g>
<!-- FormLoginModule -->
<g id="node4" class="node">
<title>FormLoginModule</title>
<polygon fill="#8dd3c7" stroke="black" points="301.83,-122 298.83,-126 277.83,-126 274.83,-122 178.17,-122 178.17,-86 301.83,-86 301.83,-122"/>
<text text-anchor="middle" x="240" y="-99.8" font-family="Times,serif" font-size="14.00">FormLoginModule</text>
</g>
<!-- FormLoginModule&#45;&gt;AuthModule -->
<g id="edge3" class="edge">
<title>FormLoginModule&#45;&gt;AuthModule</title>
<path fill="none" stroke="black" d="M285.44,-122.11C285.44,-122.11 285.44,-140.99 285.44,-140.99"/>
<polygon fill="black" stroke="black" points="281.95,-140.99 285.44,-150.99 288.95,-140.99 281.95,-140.99"/>
</g>
<!-- FormRegisterModule -->
<g id="node5" class="node">
<title>FormRegisterModule</title>
<polygon fill="#8dd3c7" stroke="black" points="160.04,-122 157.04,-126 136.04,-126 133.04,-122 23.96,-122 23.96,-86 160.04,-86 160.04,-122"/>
<text text-anchor="middle" x="92" y="-99.8" font-family="Times,serif" font-size="14.00">FormRegisterModule</text>
</g>
<!-- FormRegisterModule&#45;&gt;AuthModule -->
<g id="edge4" class="edge">
<title>FormRegisterModule&#45;&gt;AuthModule</title>
<path fill="none" stroke="black" d="M92,-122.11C92,-141.34 92,-169 92,-169 92,-169 259.34,-169 259.34,-169"/>
<polygon fill="black" stroke="black" points="259.34,-172.5 269.34,-169 259.34,-165.5 259.34,-172.5"/>
</g>
</g>
</svg>
