<?xml version="1.0" encoding="UTF-8" standalone="no"?>
<!DOCTYPE svg PUBLIC "-//W3C//DTD SVG 1.1//EN"
 "http://www.w3.org/Graphics/SVG/1.1/DTD/svg11.dtd">
<!-- Generated by graphviz version 2.47.0 (20210316.0004)
 -->
<!-- Title: dependencies Pages: 1 -->
<svg width="913pt" height="211pt"
 viewBox="0.00 0.00 913.00 211.00" xmlns="http://www.w3.org/2000/svg" xmlns:xlink="http://www.w3.org/1999/xlink">
<g id="graph0" class="graph" transform="scale(1 1) rotate(0) translate(4 207)">
<title>dependencies</title>
<polygon fill="white" stroke="transparent" points="-4,4 -4,-207 909,-207 909,4 -4,4"/>
<text text-anchor="start" x="431.51" y="-42.4" font-family="Times-12" font-weight="bold" font-size="14.00">Legend</text>
<polygon fill="#ffffb3" stroke="transparent" points="218.5,-10 218.5,-30 238.5,-30 238.5,-10 218.5,-10"/>
<text text-anchor="start" x="242.13" y="-15.4" font-family="Times-12" font-size="14.00"> &#160;Declarations</text>
<polygon fill="#8dd3c7" stroke="transparent" points="331.5,-10 331.5,-30 351.5,-30 351.5,-10 331.5,-10"/>
<text text-anchor="start" x="355.23" y="-15.4" font-family="Times-12" font-size="14.00"> &#160;Module</text>
<polygon fill="#80b1d3" stroke="transparent" points="417.5,-10 417.5,-30 437.5,-30 437.5,-10 417.5,-10"/>
<text text-anchor="start" x="441.28" y="-15.4" font-family="Times-12" font-size="14.00"> &#160;Bootstrap</text>
<polygon fill="#fdb462" stroke="transparent" points="514.5,-10 514.5,-30 534.5,-30 534.5,-10 514.5,-10"/>
<text text-anchor="start" x="538.17" y="-15.4" font-family="Times-12" font-size="14.00"> &#160;Providers</text>
<polygon fill="#fb8072" stroke="transparent" points="610.5,-10 610.5,-30 630.5,-30 630.5,-10 610.5,-10"/>
<text text-anchor="start" x="634.23" y="-15.4" font-family="Times-12" font-size="14.00"> &#160;Exports</text>
<g id="clust1" class="cluster">
<title>cluster_GestionInteresesModule</title>
<polygon fill="none" stroke="black" stroke-dasharray="1,5" points="8,-70 8,-195 897,-195 897,-70 8,-70"/>
</g>
<g id="clust5" class="cluster">
<title>cluster_GestionInteresesModule_imports</title>
<polygon fill="none" stroke="black" points="439,-78 439,-130 889,-130 889,-78 439,-78"/>
</g>
<g id="clust2" class="cluster">
<title>cluster_GestionInteresesModule_declarations</title>
<polygon fill="none" stroke="black" points="16,-78 16,-130 431,-130 431,-78 16,-78"/>
</g>
<!-- GestionInteresesComponent -->
<g id="node1" class="node">
<title>GestionInteresesComponent</title>
<polygon fill="#ffffb3" stroke="black" points="423.12,-122 248.88,-122 248.88,-86 423.12,-86 423.12,-122"/>
<text text-anchor="middle" x="336" y="-99.8" font-family="Times,serif" font-size="14.00">GestionInteresesComponent</text>
</g>
<!-- GestionInteresesModule -->
<g id="node3" class="node">
<title>GestionInteresesModule</title>
<polygon fill="#8dd3c7" stroke="black" points="572.34,-187 569.34,-191 548.34,-191 545.34,-187 419.66,-187 419.66,-151 572.34,-151 572.34,-187"/>
<text text-anchor="middle" x="496" y="-164.8" font-family="Times,serif" font-size="14.00">GestionInteresesModule</text>
</g>
<!-- GestionInteresesComponent&#45;&gt;GestionInteresesModule -->
<g id="edge1" class="edge">
<title>GestionInteresesComponent&#45;&gt;GestionInteresesModule</title>
<path fill="none" stroke="black" d="M423.3,-104C430.48,-104 435.05,-104 435.05,-104 435.05,-104 435.05,-140.89 435.05,-140.89"/>
<polygon fill="black" stroke="black" points="431.55,-140.89 435.05,-150.89 438.55,-140.89 431.55,-140.89"/>
</g>
<!-- GestionInteresesTableComponent -->
<g id="node2" class="node">
<title>GestionInteresesTableComponent</title>
<polygon fill="#ffffb3" stroke="black" points="230.5,-122 23.5,-122 23.5,-86 230.5,-86 230.5,-122"/>
<text text-anchor="middle" x="127" y="-99.8" font-family="Times,serif" font-size="14.00">GestionInteresesTableComponent</text>
</g>
<!-- GestionInteresesTableComponent&#45;&gt;GestionInteresesModule -->
<g id="edge2" class="edge">
<title>GestionInteresesTableComponent&#45;&gt;GestionInteresesModule</title>
<path fill="none" stroke="black" d="M127,-122.11C127,-141.34 127,-169 127,-169 127,-169 409.54,-169 409.54,-169"/>
<polygon fill="black" stroke="black" points="409.54,-172.5 419.54,-169 409.54,-165.5 409.54,-172.5"/>
</g>
<!-- GestionInteresesRoutingModule -->
<g id="node4" class="node">
<title>GestionInteresesRoutingModule</title>
<polygon fill="#8dd3c7" stroke="black" points="880.96,-122 877.96,-126 856.96,-126 853.96,-122 683.04,-122 683.04,-86 880.96,-86 880.96,-122"/>
<text text-anchor="middle" x="782" y="-99.8" font-family="Times,serif" font-size="14.00">GestionInteresesRoutingModule</text>
</g>
<!-- GestionInteresesRoutingModule&#45;&gt;GestionInteresesModule -->
<g id="edge3" class="edge">
<title>GestionInteresesRoutingModule&#45;&gt;GestionInteresesModule</title>
<path fill="none" stroke="black" d="M782,-122.11C782,-141.34 782,-169 782,-169 782,-169 582.64,-169 582.64,-169"/>
<polygon fill="black" stroke="black" points="582.64,-165.5 572.64,-169 582.64,-172.5 582.64,-165.5"/>
</g>
<!-- ModalsModule -->
<g id="node5" class="node">
<title>ModalsModule</title>
<polygon fill="#8dd3c7" stroke="black" points="664.55,-122 661.55,-126 640.55,-126 637.55,-122 563.45,-122 563.45,-86 664.55,-86 664.55,-122"/>
<text text-anchor="middle" x="614" y="-99.8" font-family="Times,serif" font-size="14.00">ModalsModule</text>
</g>
<!-- ModalsModule&#45;&gt;GestionInteresesModule -->
<g id="edge4" class="edge">
<title>ModalsModule&#45;&gt;GestionInteresesModule</title>
<path fill="none" stroke="black" d="M567.82,-122.11C567.82,-122.11 567.82,-140.99 567.82,-140.99"/>
<polygon fill="black" stroke="black" points="564.32,-140.99 567.82,-150.99 571.32,-140.99 564.32,-140.99"/>
</g>
<!-- SharedModule -->
<g id="node6" class="node">
<title>SharedModule</title>
<polygon fill="#8dd3c7" stroke="black" points="545.42,-122 542.42,-126 521.42,-126 518.42,-122 446.58,-122 446.58,-86 545.42,-86 545.42,-122"/>
<text text-anchor="middle" x="496" y="-99.8" font-family="Times,serif" font-size="14.00">SharedModule</text>
</g>
<!-- SharedModule&#45;&gt;GestionInteresesModule -->
<g id="edge5" class="edge">
<title>SharedModule&#45;&gt;GestionInteresesModule</title>
<path fill="none" stroke="black" d="M496,-122.11C496,-122.11 496,-140.99 496,-140.99"/>
<polygon fill="black" stroke="black" points="492.5,-140.99 496,-150.99 499.5,-140.99 492.5,-140.99"/>
</g>
</g>
</svg>
