<?xml version="1.0" encoding="UTF-8" standalone="no"?>
<!DOCTYPE svg PUBLIC "-//W3C//DTD SVG 1.1//EN"
 "http://www.w3.org/Graphics/SVG/1.1/DTD/svg11.dtd">
<!-- Generated by graphviz version 2.47.0 (20210316.0004)
 -->
<!-- Title: dependencies Pages: 1 -->
<svg width="504pt" height="211pt"
 viewBox="0.00 0.00 504.00 211.00" xmlns="http://www.w3.org/2000/svg" xmlns:xlink="http://www.w3.org/1999/xlink">
<g id="graph0" class="graph" transform="scale(1 1) rotate(0) translate(4 207)">
<title>dependencies</title>
<polygon fill="white" stroke="transparent" points="-4,4 -4,-207 500,-207 500,4 -4,4"/>
<text text-anchor="start" x="227.01" y="-42.4" font-family="Times-12" font-weight="bold" font-size="14.00">Legend</text>
<polygon fill="#ffffb3" stroke="transparent" points="14,-10 14,-30 34,-30 34,-10 14,-10"/>
<text text-anchor="start" x="37.63" y="-15.4" font-family="Times-12" font-size="14.00"> &#160;Declarations</text>
<polygon fill="#8dd3c7" stroke="transparent" points="127,-10 127,-30 147,-30 147,-10 127,-10"/>
<text text-anchor="start" x="150.73" y="-15.4" font-family="Times-12" font-size="14.00"> &#160;Module</text>
<polygon fill="#80b1d3" stroke="transparent" points="213,-10 213,-30 233,-30 233,-10 213,-10"/>
<text text-anchor="start" x="236.78" y="-15.4" font-family="Times-12" font-size="14.00"> &#160;Bootstrap</text>
<polygon fill="#fdb462" stroke="transparent" points="310,-10 310,-30 330,-30 330,-10 310,-10"/>
<text text-anchor="start" x="333.67" y="-15.4" font-family="Times-12" font-size="14.00"> &#160;Providers</text>
<polygon fill="#fb8072" stroke="transparent" points="406,-10 406,-30 426,-30 426,-10 406,-10"/>
<text text-anchor="start" x="429.73" y="-15.4" font-family="Times-12" font-size="14.00"> &#160;Exports</text>
<g id="clust1" class="cluster">
<title>cluster_EventsModule</title>
<polygon fill="none" stroke="black" stroke-dasharray="1,5" points="30.5,-70 30.5,-195 465.5,-195 465.5,-70 30.5,-70"/>
</g>
<g id="clust4" class="cluster">
<title>cluster_EventsModule_imports</title>
<polygon fill="none" stroke="black" points="182.5,-78 182.5,-130 457.5,-130 457.5,-78 182.5,-78"/>
</g>
<g id="clust2" class="cluster">
<title>cluster_EventsModule_declarations</title>
<polygon fill="none" stroke="black" points="38.5,-78 38.5,-130 174.5,-130 174.5,-78 38.5,-78"/>
</g>
<!-- EventsComponent -->
<g id="node1" class="node">
<title>EventsComponent</title>
<polygon fill="#ffffb3" stroke="black" points="166.44,-122 46.56,-122 46.56,-86 166.44,-86 166.44,-122"/>
<text text-anchor="middle" x="106.5" y="-99.8" font-family="Times,serif" font-size="14.00">EventsComponent</text>
</g>
<!-- EventsModule -->
<g id="node2" class="node">
<title>EventsModule</title>
<polygon fill="#8dd3c7" stroke="black" points="288.15,-187 285.15,-191 264.15,-191 261.15,-187 190.85,-187 190.85,-151 288.15,-151 288.15,-187"/>
<text text-anchor="middle" x="239.5" y="-164.8" font-family="Times,serif" font-size="14.00">EventsModule</text>
</g>
<!-- EventsComponent&#45;&gt;EventsModule -->
<g id="edge1" class="edge">
<title>EventsComponent&#45;&gt;EventsModule</title>
<path fill="none" stroke="black" d="M106.5,-122.11C106.5,-141.34 106.5,-169 106.5,-169 106.5,-169 180.73,-169 180.73,-169"/>
<polygon fill="black" stroke="black" points="180.73,-172.5 190.73,-169 180.73,-165.5 180.73,-172.5"/>
</g>
<!-- EventsRoutingModule -->
<g id="node3" class="node">
<title>EventsRoutingModule</title>
<polygon fill="#8dd3c7" stroke="black" points="449.77,-122 446.77,-126 425.77,-126 422.77,-122 307.23,-122 307.23,-86 449.77,-86 449.77,-122"/>
<text text-anchor="middle" x="378.5" y="-99.8" font-family="Times,serif" font-size="14.00">EventsRoutingModule</text>
</g>
<!-- EventsRoutingModule&#45;&gt;EventsModule -->
<g id="edge2" class="edge">
<title>EventsRoutingModule&#45;&gt;EventsModule</title>
<path fill="none" stroke="black" d="M378.5,-122.11C378.5,-141.34 378.5,-169 378.5,-169 378.5,-169 298.51,-169 298.51,-169"/>
<polygon fill="black" stroke="black" points="298.51,-165.5 288.51,-169 298.51,-172.5 298.51,-165.5"/>
</g>
<!-- SharedModule -->
<g id="node4" class="node">
<title>SharedModule</title>
<polygon fill="#8dd3c7" stroke="black" points="288.92,-122 285.92,-126 264.92,-126 261.92,-122 190.08,-122 190.08,-86 288.92,-86 288.92,-122"/>
<text text-anchor="middle" x="239.5" y="-99.8" font-family="Times,serif" font-size="14.00">SharedModule</text>
</g>
<!-- SharedModule&#45;&gt;EventsModule -->
<g id="edge3" class="edge">
<title>SharedModule&#45;&gt;EventsModule</title>
<path fill="none" stroke="black" d="M239.5,-122.11C239.5,-122.11 239.5,-140.99 239.5,-140.99"/>
<polygon fill="black" stroke="black" points="236,-140.99 239.5,-150.99 243,-140.99 236,-140.99"/>
</g>
</g>
</svg>
