<?xml version="1.0" encoding="UTF-8" standalone="no"?>
<!DOCTYPE svg PUBLIC "-//W3C//DTD SVG 1.1//EN"
 "http://www.w3.org/Graphics/SVG/1.1/DTD/svg11.dtd">
<!-- Generated by graphviz version 2.47.0 (20210316.0004)
 -->
<!-- Title: dependencies Pages: 1 -->
<svg width="504pt" height="211pt"
 viewBox="0.00 0.00 504.00 211.00" xmlns="http://www.w3.org/2000/svg" xmlns:xlink="http://www.w3.org/1999/xlink">
<g id="graph0" class="graph" transform="scale(1 1) rotate(0) translate(4 207)">
<title>dependencies</title>
<polygon fill="white" stroke="transparent" points="-4,4 -4,-207 500,-207 500,4 -4,4"/>
<text text-anchor="start" x="227.01" y="-42.4" font-family="Times-12" font-weight="bold" font-size="14.00">Legend</text>
<polygon fill="#ffffb3" stroke="transparent" points="14,-10 14,-30 34,-30 34,-10 14,-10"/>
<text text-anchor="start" x="37.63" y="-15.4" font-family="Times-12" font-size="14.00"> &#160;Declarations</text>
<polygon fill="#8dd3c7" stroke="transparent" points="127,-10 127,-30 147,-30 147,-10 127,-10"/>
<text text-anchor="start" x="150.73" y="-15.4" font-family="Times-12" font-size="14.00"> &#160;Module</text>
<polygon fill="#80b1d3" stroke="transparent" points="213,-10 213,-30 233,-30 233,-10 213,-10"/>
<text text-anchor="start" x="236.78" y="-15.4" font-family="Times-12" font-size="14.00"> &#160;Bootstrap</text>
<polygon fill="#fdb462" stroke="transparent" points="310,-10 310,-30 330,-30 330,-10 310,-10"/>
<text text-anchor="start" x="333.67" y="-15.4" font-family="Times-12" font-size="14.00"> &#160;Providers</text>
<polygon fill="#fb8072" stroke="transparent" points="406,-10 406,-30 426,-30 426,-10 406,-10"/>
<text text-anchor="start" x="429.73" y="-15.4" font-family="Times-12" font-size="14.00"> &#160;Exports</text>
<g id="clust1" class="cluster">
<title>cluster_EventsModule</title>
<polygon fill="none" stroke="black" stroke-dasharray="1,5" points="30.5,-70 30.5,-195 465.5,-195 465.5,-70 30.5,-70"/>
</g>
<g id="clust2" class="cluster">
<title>cluster_EventsModule_declarations</title>
<polygon fill="none" stroke="black" points="321.5,-78 321.5,-130 457.5,-130 457.5,-78 321.5,-78"/>
</g>
<g id="clust4" class="cluster">
<title>cluster_EventsModule_imports</title>
<polygon fill="none" stroke="black" points="38.5,-78 38.5,-130 313.5,-130 313.5,-78 38.5,-78"/>
</g>
<!-- EventsComponent -->
<g id="node1" class="node">
<title>EventsComponent</title>
<polygon fill="#ffffb3" stroke="black" points="449.44,-122 329.56,-122 329.56,-86 449.44,-86 449.44,-122"/>
<text text-anchor="middle" x="389.5" y="-99.8" font-family="Times,serif" font-size="14.00">EventsComponent</text>
</g>
<!-- EventsModule -->
<g id="node2" class="node">
<title>EventsModule</title>
<polygon fill="#8dd3c7" stroke="black" points="283.15,-187 280.15,-191 259.15,-191 256.15,-187 185.85,-187 185.85,-151 283.15,-151 283.15,-187"/>
<text text-anchor="middle" x="234.5" y="-164.8" font-family="Times,serif" font-size="14.00">EventsModule</text>
</g>
<!-- EventsComponent&#45;&gt;EventsModule -->
<g id="edge1" class="edge">
<title>EventsComponent&#45;&gt;EventsModule</title>
<path fill="none" stroke="black" d="M389.5,-122.11C389.5,-141.34 389.5,-169 389.5,-169 389.5,-169 293.54,-169 293.54,-169"/>
<polygon fill="black" stroke="black" points="293.54,-165.5 283.54,-169 293.54,-172.5 293.54,-165.5"/>
</g>
<!-- EventsRoutingModule -->
<g id="node3" class="node">
<title>EventsRoutingModule</title>
<polygon fill="#8dd3c7" stroke="black" points="305.77,-122 302.77,-126 281.77,-126 278.77,-122 163.23,-122 163.23,-86 305.77,-86 305.77,-122"/>
<text text-anchor="middle" x="234.5" y="-99.8" font-family="Times,serif" font-size="14.00">EventsRoutingModule</text>
</g>
<!-- EventsRoutingModule&#45;&gt;EventsModule -->
<g id="edge2" class="edge">
<title>EventsRoutingModule&#45;&gt;EventsModule</title>
<path fill="none" stroke="black" d="M234.5,-122.11C234.5,-122.11 234.5,-140.99 234.5,-140.99"/>
<polygon fill="black" stroke="black" points="231,-140.99 234.5,-150.99 238,-140.99 231,-140.99"/>
</g>
<!-- SharedModule -->
<g id="node4" class="node">
<title>SharedModule</title>
<polygon fill="#8dd3c7" stroke="black" points="144.92,-122 141.92,-126 120.92,-126 117.92,-122 46.08,-122 46.08,-86 144.92,-86 144.92,-122"/>
<text text-anchor="middle" x="95.5" y="-99.8" font-family="Times,serif" font-size="14.00">SharedModule</text>
</g>
<!-- SharedModule&#45;&gt;EventsModule -->
<g id="edge3" class="edge">
<title>SharedModule&#45;&gt;EventsModule</title>
<path fill="none" stroke="black" d="M95.5,-122.11C95.5,-141.34 95.5,-169 95.5,-169 95.5,-169 175.49,-169 175.49,-169"/>
<polygon fill="black" stroke="black" points="175.49,-172.5 185.49,-169 175.49,-165.5 175.49,-172.5"/>
</g>
</g>
</svg>
