<?xml version="1.0" encoding="UTF-8" standalone="no"?>
<!DOCTYPE svg PUBLIC "-//W3C//DTD SVG 1.1//EN"
 "http://www.w3.org/Graphics/SVG/1.1/DTD/svg11.dtd">
<!-- Generated by graphviz version 2.47.0 (20210316.0004)
 -->
<!-- Title: dependencies Pages: 1 -->
<svg width="943pt" height="211pt"
 viewBox="0.00 0.00 943.00 211.00" xmlns="http://www.w3.org/2000/svg" xmlns:xlink="http://www.w3.org/1999/xlink">
<g id="graph0" class="graph" transform="scale(1 1) rotate(0) translate(4 207)">
<title>dependencies</title>
<polygon fill="white" stroke="transparent" points="-4,4 -4,-207 939,-207 939,4 -4,4"/>
<text text-anchor="start" x="446.51" y="-42.4" font-family="Times-12" font-weight="bold" font-size="14.00">Legend</text>
<polygon fill="#ffffb3" stroke="transparent" points="233.5,-10 233.5,-30 253.5,-30 253.5,-10 233.5,-10"/>
<text text-anchor="start" x="257.13" y="-15.4" font-family="Times-12" font-size="14.00"> &#160;Declarations</text>
<polygon fill="#8dd3c7" stroke="transparent" points="346.5,-10 346.5,-30 366.5,-30 366.5,-10 346.5,-10"/>
<text text-anchor="start" x="370.23" y="-15.4" font-family="Times-12" font-size="14.00"> &#160;Module</text>
<polygon fill="#80b1d3" stroke="transparent" points="432.5,-10 432.5,-30 452.5,-30 452.5,-10 432.5,-10"/>
<text text-anchor="start" x="456.28" y="-15.4" font-family="Times-12" font-size="14.00"> &#160;Bootstrap</text>
<polygon fill="#fdb462" stroke="transparent" points="529.5,-10 529.5,-30 549.5,-30 549.5,-10 529.5,-10"/>
<text text-anchor="start" x="553.17" y="-15.4" font-family="Times-12" font-size="14.00"> &#160;Providers</text>
<polygon fill="#fb8072" stroke="transparent" points="625.5,-10 625.5,-30 645.5,-30 645.5,-10 625.5,-10"/>
<text text-anchor="start" x="649.23" y="-15.4" font-family="Times-12" font-size="14.00"> &#160;Exports</text>
<g id="clust1" class="cluster">
<title>cluster_GestionCategoriasModule</title>
<polygon fill="none" stroke="black" stroke-dasharray="1,5" points="8,-70 8,-195 927,-195 927,-70 8,-70"/>
</g>
<g id="clust2" class="cluster">
<title>cluster_GestionCategoriasModule_declarations</title>
<polygon fill="none" stroke="black" points="484,-78 484,-130 919,-130 919,-78 484,-78"/>
</g>
<g id="clust5" class="cluster">
<title>cluster_GestionCategoriasModule_imports</title>
<polygon fill="none" stroke="black" points="16,-78 16,-130 476,-130 476,-78 16,-78"/>
</g>
<!-- GestionCategoriasComponent -->
<g id="node1" class="node">
<title>GestionCategoriasComponent</title>
<polygon fill="#ffffb3" stroke="black" points="911.25,-122 726.75,-122 726.75,-86 911.25,-86 911.25,-122"/>
<text text-anchor="middle" x="819" y="-99.8" font-family="Times,serif" font-size="14.00">GestionCategoriasComponent</text>
</g>
<!-- GestionCategoriasModule -->
<g id="node3" class="node">
<title>GestionCategoriasModule</title>
<polygon fill="#8dd3c7" stroke="black" points="445.46,-187 442.46,-191 421.46,-191 418.46,-187 282.54,-187 282.54,-151 445.46,-151 445.46,-187"/>
<text text-anchor="middle" x="364" y="-164.8" font-family="Times,serif" font-size="14.00">GestionCategoriasModule</text>
</g>
<!-- GestionCategoriasComponent&#45;&gt;GestionCategoriasModule -->
<g id="edge1" class="edge">
<title>GestionCategoriasComponent&#45;&gt;GestionCategoriasModule</title>
<path fill="none" stroke="black" d="M819,-122.28C819,-143.32 819,-175 819,-175 819,-175 455.61,-175 455.61,-175"/>
<polygon fill="black" stroke="black" points="455.61,-171.5 445.61,-175 455.61,-178.5 455.61,-171.5"/>
</g>
<!-- GestionCategoriasTableComponent -->
<g id="node2" class="node">
<title>GestionCategoriasTableComponent</title>
<polygon fill="#ffffb3" stroke="black" points="708.12,-122 491.88,-122 491.88,-86 708.12,-86 708.12,-122"/>
<text text-anchor="middle" x="600" y="-99.8" font-family="Times,serif" font-size="14.00">GestionCategoriasTableComponent</text>
</g>
<!-- GestionCategoriasTableComponent&#45;&gt;GestionCategoriasModule -->
<g id="edge2" class="edge">
<title>GestionCategoriasTableComponent&#45;&gt;GestionCategoriasModule</title>
<path fill="none" stroke="black" d="M600,-122.02C600,-139.37 600,-163 600,-163 600,-163 455.55,-163 455.55,-163"/>
<polygon fill="black" stroke="black" points="455.55,-159.5 445.55,-163 455.55,-166.5 455.55,-159.5"/>
</g>
<!-- GestionCategoriasRoutingModule -->
<g id="node4" class="node">
<title>GestionCategoriasRoutingModule</title>
<polygon fill="#8dd3c7" stroke="black" points="468.08,-122 465.08,-126 444.08,-126 441.08,-122 259.92,-122 259.92,-86 468.08,-86 468.08,-122"/>
<text text-anchor="middle" x="364" y="-99.8" font-family="Times,serif" font-size="14.00">GestionCategoriasRoutingModule</text>
</g>
<!-- GestionCategoriasRoutingModule&#45;&gt;GestionCategoriasModule -->
<g id="edge3" class="edge">
<title>GestionCategoriasRoutingModule&#45;&gt;GestionCategoriasModule</title>
<path fill="none" stroke="black" d="M364,-122.11C364,-122.11 364,-140.99 364,-140.99"/>
<polygon fill="black" stroke="black" points="360.5,-140.99 364,-150.99 367.5,-140.99 360.5,-140.99"/>
</g>
<!-- ModalsModule -->
<g id="node5" class="node">
<title>ModalsModule</title>
<polygon fill="#8dd3c7" stroke="black" points="241.55,-122 238.55,-126 217.55,-126 214.55,-122 140.45,-122 140.45,-86 241.55,-86 241.55,-122"/>
<text text-anchor="middle" x="191" y="-99.8" font-family="Times,serif" font-size="14.00">ModalsModule</text>
</g>
<!-- ModalsModule&#45;&gt;GestionCategoriasModule -->
<g id="edge4" class="edge">
<title>ModalsModule&#45;&gt;GestionCategoriasModule</title>
<path fill="none" stroke="black" d="M191,-122.02C191,-139.37 191,-163 191,-163 191,-163 272.31,-163 272.31,-163"/>
<polygon fill="black" stroke="black" points="272.31,-166.5 282.31,-163 272.31,-159.5 272.31,-166.5"/>
</g>
<!-- SharedModule -->
<g id="node6" class="node">
<title>SharedModule</title>
<polygon fill="#8dd3c7" stroke="black" points="122.42,-122 119.42,-126 98.42,-126 95.42,-122 23.58,-122 23.58,-86 122.42,-86 122.42,-122"/>
<text text-anchor="middle" x="73" y="-99.8" font-family="Times,serif" font-size="14.00">SharedModule</text>
</g>
<!-- SharedModule&#45;&gt;GestionCategoriasModule -->
<g id="edge5" class="edge">
<title>SharedModule&#45;&gt;GestionCategoriasModule</title>
<path fill="none" stroke="black" d="M73,-122.28C73,-143.32 73,-175 73,-175 73,-175 272.17,-175 272.17,-175"/>
<polygon fill="black" stroke="black" points="272.17,-178.5 282.17,-175 272.17,-171.5 272.17,-178.5"/>
</g>
</g>
</svg>
