<?xml version="1.0" encoding="UTF-8" standalone="no"?>
<!DOCTYPE svg PUBLIC "-//W3C//DTD SVG 1.1//EN"
 "http://www.w3.org/Graphics/SVG/1.1/DTD/svg11.dtd">
<!-- Generated by graphviz version 2.47.0 (20210316.0004)
 -->
<!-- Title: dependencies Pages: 1 -->
<svg width="586pt" height="211pt"
 viewBox="0.00 0.00 586.00 211.00" xmlns="http://www.w3.org/2000/svg" xmlns:xlink="http://www.w3.org/1999/xlink">
<g id="graph0" class="graph" transform="scale(1 1) rotate(0) translate(4 207)">
<title>dependencies</title>
<polygon fill="white" stroke="transparent" points="-4,4 -4,-207 582,-207 582,4 -4,4"/>
<text text-anchor="start" x="268.01" y="-42.4" font-family="Times-12" font-weight="bold" font-size="14.00">Legend</text>
<polygon fill="#ffffb3" stroke="transparent" points="55,-10 55,-30 75,-30 75,-10 55,-10"/>
<text text-anchor="start" x="78.63" y="-15.4" font-family="Times-12" font-size="14.00"> &#160;Declarations</text>
<polygon fill="#8dd3c7" stroke="transparent" points="168,-10 168,-30 188,-30 188,-10 168,-10"/>
<text text-anchor="start" x="191.73" y="-15.4" font-family="Times-12" font-size="14.00"> &#160;Module</text>
<polygon fill="#80b1d3" stroke="transparent" points="254,-10 254,-30 274,-30 274,-10 254,-10"/>
<text text-anchor="start" x="277.78" y="-15.4" font-family="Times-12" font-size="14.00"> &#160;Bootstrap</text>
<polygon fill="#fdb462" stroke="transparent" points="351,-10 351,-30 371,-30 371,-10 351,-10"/>
<text text-anchor="start" x="374.67" y="-15.4" font-family="Times-12" font-size="14.00"> &#160;Providers</text>
<polygon fill="#fb8072" stroke="transparent" points="447,-10 447,-30 467,-30 467,-10 447,-10"/>
<text text-anchor="start" x="470.73" y="-15.4" font-family="Times-12" font-size="14.00"> &#160;Exports</text>
<g id="clust1" class="cluster">
<title>cluster_EventModule</title>
<polygon fill="none" stroke="black" stroke-dasharray="1,5" points="8,-70 8,-195 570,-195 570,-70 8,-70"/>
</g>
<g id="clust4" class="cluster">
<title>cluster_EventModule_imports</title>
<polygon fill="none" stroke="black" points="154,-78 154,-130 562,-130 562,-78 154,-78"/>
</g>
<g id="clust2" class="cluster">
<title>cluster_EventModule_declarations</title>
<polygon fill="none" stroke="black" points="16,-78 16,-130 146,-130 146,-78 16,-78"/>
</g>
<!-- EventComponent -->
<g id="node1" class="node">
<title>EventComponent</title>
<polygon fill="#ffffb3" stroke="black" points="137.99,-122 24.01,-122 24.01,-86 137.99,-86 137.99,-122"/>
<text text-anchor="middle" x="81" y="-99.8" font-family="Times,serif" font-size="14.00">EventComponent</text>
</g>
<!-- EventModule -->
<g id="node2" class="node">
<title>EventModule</title>
<polygon fill="#8dd3c7" stroke="black" points="327.21,-187 324.21,-191 303.21,-191 300.21,-187 234.79,-187 234.79,-151 327.21,-151 327.21,-187"/>
<text text-anchor="middle" x="281" y="-164.8" font-family="Times,serif" font-size="14.00">EventModule</text>
</g>
<!-- EventComponent&#45;&gt;EventModule -->
<g id="edge1" class="edge">
<title>EventComponent&#45;&gt;EventModule</title>
<path fill="none" stroke="black" d="M81,-122.11C81,-141.34 81,-169 81,-169 81,-169 224.86,-169 224.86,-169"/>
<polygon fill="black" stroke="black" points="224.86,-172.5 234.86,-169 224.86,-165.5 224.86,-172.5"/>
</g>
<!-- DirectivesModule -->
<g id="node3" class="node">
<title>DirectivesModule</title>
<polygon fill="#8dd3c7" stroke="black" points="553.58,-122 550.58,-126 529.58,-126 526.58,-122 436.42,-122 436.42,-86 553.58,-86 553.58,-122"/>
<text text-anchor="middle" x="495" y="-99.8" font-family="Times,serif" font-size="14.00">DirectivesModule</text>
</g>
<!-- DirectivesModule&#45;&gt;EventModule -->
<g id="edge2" class="edge">
<title>DirectivesModule&#45;&gt;EventModule</title>
<path fill="none" stroke="black" d="M495,-122.11C495,-141.34 495,-169 495,-169 495,-169 337.17,-169 337.17,-169"/>
<polygon fill="black" stroke="black" points="337.17,-165.5 327.17,-169 337.17,-172.5 337.17,-165.5"/>
</g>
<!-- EventRoutingModule -->
<g id="node4" class="node">
<title>EventRoutingModule</title>
<polygon fill="#8dd3c7" stroke="black" points="418.83,-122 415.83,-126 394.83,-126 391.83,-122 281.17,-122 281.17,-86 418.83,-86 418.83,-122"/>
<text text-anchor="middle" x="350" y="-99.8" font-family="Times,serif" font-size="14.00">EventRoutingModule</text>
</g>
<!-- EventRoutingModule&#45;&gt;EventModule -->
<g id="edge3" class="edge">
<title>EventRoutingModule&#45;&gt;EventModule</title>
<path fill="none" stroke="black" d="M304.22,-122.11C304.22,-122.11 304.22,-140.99 304.22,-140.99"/>
<polygon fill="black" stroke="black" points="300.72,-140.99 304.22,-150.99 307.72,-140.99 300.72,-140.99"/>
</g>
<!-- ModalsModule -->
<g id="node5" class="node">
<title>ModalsModule</title>
<polygon fill="#8dd3c7" stroke="black" points="263.55,-122 260.55,-126 239.55,-126 236.55,-122 162.45,-122 162.45,-86 263.55,-86 263.55,-122"/>
<text text-anchor="middle" x="213" y="-99.8" font-family="Times,serif" font-size="14.00">ModalsModule</text>
</g>
<!-- ModalsModule&#45;&gt;EventModule -->
<g id="edge4" class="edge">
<title>ModalsModule&#45;&gt;EventModule</title>
<path fill="none" stroke="black" d="M249.33,-122.11C249.33,-122.11 249.33,-140.99 249.33,-140.99"/>
<polygon fill="black" stroke="black" points="245.83,-140.99 249.33,-150.99 252.83,-140.99 245.83,-140.99"/>
</g>
</g>
</svg>
