<?xml version="1.0" encoding="UTF-8" standalone="no"?>
<!DOCTYPE svg PUBLIC "-//W3C//DTD SVG 1.1//EN"
 "http://www.w3.org/Graphics/SVG/1.1/DTD/svg11.dtd">
<!-- Generated by graphviz version 2.47.0 (20210316.0004)
 -->
<!-- Title: dependencies Pages: 1 -->
<svg width="732pt" height="211pt"
 viewBox="0.00 0.00 732.00 211.00" xmlns="http://www.w3.org/2000/svg" xmlns:xlink="http://www.w3.org/1999/xlink">
<g id="graph0" class="graph" transform="scale(1 1) rotate(0) translate(4 207)">
<title>dependencies</title>
<polygon fill="white" stroke="transparent" points="-4,4 -4,-207 728,-207 728,4 -4,4"/>
<text text-anchor="start" x="341.01" y="-42.4" font-family="Times-12" font-weight="bold" font-size="14.00">Legend</text>
<polygon fill="#ffffb3" stroke="transparent" points="128,-10 128,-30 148,-30 148,-10 128,-10"/>
<text text-anchor="start" x="151.63" y="-15.4" font-family="Times-12" font-size="14.00"> &#160;Declarations</text>
<polygon fill="#8dd3c7" stroke="transparent" points="241,-10 241,-30 261,-30 261,-10 241,-10"/>
<text text-anchor="start" x="264.73" y="-15.4" font-family="Times-12" font-size="14.00"> &#160;Module</text>
<polygon fill="#80b1d3" stroke="transparent" points="327,-10 327,-30 347,-30 347,-10 327,-10"/>
<text text-anchor="start" x="350.78" y="-15.4" font-family="Times-12" font-size="14.00"> &#160;Bootstrap</text>
<polygon fill="#fdb462" stroke="transparent" points="424,-10 424,-30 444,-30 444,-10 424,-10"/>
<text text-anchor="start" x="447.67" y="-15.4" font-family="Times-12" font-size="14.00"> &#160;Providers</text>
<polygon fill="#fb8072" stroke="transparent" points="520,-10 520,-30 540,-30 540,-10 520,-10"/>
<text text-anchor="start" x="543.73" y="-15.4" font-family="Times-12" font-size="14.00"> &#160;Exports</text>
<g id="clust1" class="cluster">
<title>cluster_EventModule</title>
<polygon fill="none" stroke="black" stroke-dasharray="1,5" points="8,-70 8,-195 716,-195 716,-70 8,-70"/>
</g>
<g id="clust2" class="cluster">
<title>cluster_EventModule_declarations</title>
<polygon fill="none" stroke="black" points="432,-78 432,-130 708,-130 708,-78 432,-78"/>
</g>
<g id="clust5" class="cluster">
<title>cluster_EventModule_imports</title>
<polygon fill="none" stroke="black" points="16,-78 16,-130 424,-130 424,-78 16,-78"/>
</g>
<!-- EventComponent -->
<g id="node1" class="node">
<title>EventComponent</title>
<polygon fill="#ffffb3" stroke="black" points="699.99,-122 586.01,-122 586.01,-86 699.99,-86 699.99,-122"/>
<text text-anchor="middle" x="643" y="-99.8" font-family="Times,serif" font-size="14.00">EventComponent</text>
</g>
<!-- EventModule -->
<g id="node3" class="node">
<title>EventModule</title>
<polygon fill="#8dd3c7" stroke="black" points="403.21,-187 400.21,-191 379.21,-191 376.21,-187 310.79,-187 310.79,-151 403.21,-151 403.21,-187"/>
<text text-anchor="middle" x="357" y="-164.8" font-family="Times,serif" font-size="14.00">EventModule</text>
</g>
<!-- EventComponent&#45;&gt;EventModule -->
<g id="edge1" class="edge">
<title>EventComponent&#45;&gt;EventModule</title>
<path fill="none" stroke="black" d="M643,-122.28C643,-143.32 643,-175 643,-175 643,-175 413.27,-175 413.27,-175"/>
<polygon fill="black" stroke="black" points="413.27,-171.5 403.27,-175 413.27,-178.5 413.27,-171.5"/>
</g>
<!-- WeatherComponent -->
<g id="node2" class="node">
<title>WeatherComponent</title>
<polygon fill="#ffffb3" stroke="black" points="568.24,-122 439.76,-122 439.76,-86 568.24,-86 568.24,-122"/>
<text text-anchor="middle" x="504" y="-99.8" font-family="Times,serif" font-size="14.00">WeatherComponent</text>
</g>
<!-- WeatherComponent&#45;&gt;EventModule -->
<g id="edge2" class="edge">
<title>WeatherComponent&#45;&gt;EventModule</title>
<path fill="none" stroke="black" d="M504,-122.02C504,-139.37 504,-163 504,-163 504,-163 413.11,-163 413.11,-163"/>
<polygon fill="black" stroke="black" points="413.11,-159.5 403.11,-163 413.11,-166.5 413.11,-159.5"/>
</g>
<!-- DirectivesModule -->
<g id="node4" class="node">
<title>DirectivesModule</title>
<polygon fill="#8dd3c7" stroke="black" points="415.58,-122 412.58,-126 391.58,-126 388.58,-122 298.42,-122 298.42,-86 415.58,-86 415.58,-122"/>
<text text-anchor="middle" x="357" y="-99.8" font-family="Times,serif" font-size="14.00">DirectivesModule</text>
</g>
<!-- DirectivesModule&#45;&gt;EventModule -->
<g id="edge3" class="edge">
<title>DirectivesModule&#45;&gt;EventModule</title>
<path fill="none" stroke="black" d="M357,-122.11C357,-122.11 357,-140.99 357,-140.99"/>
<polygon fill="black" stroke="black" points="353.5,-140.99 357,-150.99 360.5,-140.99 353.5,-140.99"/>
</g>
<!-- EventRoutingModule -->
<g id="node5" class="node">
<title>EventRoutingModule</title>
<polygon fill="#8dd3c7" stroke="black" points="280.83,-122 277.83,-126 256.83,-126 253.83,-122 143.17,-122 143.17,-86 280.83,-86 280.83,-122"/>
<text text-anchor="middle" x="212" y="-99.8" font-family="Times,serif" font-size="14.00">EventRoutingModule</text>
</g>
<!-- EventRoutingModule&#45;&gt;EventModule -->
<g id="edge4" class="edge">
<title>EventRoutingModule&#45;&gt;EventModule</title>
<path fill="none" stroke="black" d="M212,-122.02C212,-139.37 212,-163 212,-163 212,-163 300.72,-163 300.72,-163"/>
<polygon fill="black" stroke="black" points="300.72,-166.5 310.72,-163 300.72,-159.5 300.72,-166.5"/>
</g>
<!-- ModalsModule -->
<g id="node6" class="node">
<title>ModalsModule</title>
<polygon fill="#8dd3c7" stroke="black" points="125.55,-122 122.55,-126 101.55,-126 98.55,-122 24.45,-122 24.45,-86 125.55,-86 125.55,-122"/>
<text text-anchor="middle" x="75" y="-99.8" font-family="Times,serif" font-size="14.00">ModalsModule</text>
</g>
<!-- ModalsModule&#45;&gt;EventModule -->
<g id="edge5" class="edge">
<title>ModalsModule&#45;&gt;EventModule</title>
<path fill="none" stroke="black" d="M75,-122.28C75,-143.32 75,-175 75,-175 75,-175 300.75,-175 300.75,-175"/>
<polygon fill="black" stroke="black" points="300.75,-178.5 310.75,-175 300.75,-171.5 300.75,-178.5"/>
</g>
</g>
</svg>
